<?xml version="1.0" encoding="UTF-8"?>
<svg id="Layer_1" data-name="Layer 1" xmlns="http://www.w3.org/2000/svg" viewBox="0 0 51.42 51.58">
  <defs>
    <style>
      .cls-1 {
        fill: #c1e6ed;
      }

      .cls-2 {
        fill: #383838;
      }
    </style>
  </defs>
  <path class="cls-2" d="M50.58.52v50H4.08c-1.78-1.53-2.26-3.23-2.52-5.48-1.01-8.69-.92-30.26-.04-39.08.15-1.48.77-5.44,2.56-5.44h46.5ZM48.58,2.52H4.58v46h44V2.52Z"/>
  <path class="cls-1" d="M48.58,2.52v46H4.58V2.52h44ZM39.58,15.52c-2.06-.37-2.64.23-4.01,1.48-3.47,3.17-7.96,11.41-11.01,15.51l-2.06-.63-4.94-7.35c-1.46-.37-3.31,1.01-2.98,2.48.15.65,8.36,9.61,9.36,9.43,2.31-1.62,16.95-19.67,15.64-20.91Z"/>
  <path class="cls-2" d="M39.58,15.52c1.31,1.25-13.33,19.29-15.64,20.91-1,.17-9.21-8.78-9.36-9.43-.33-1.47,1.52-2.85,2.98-2.48l4.94,7.35,2.06.63c3.04-4.1,7.53-12.33,11.01-15.51,1.37-1.25,1.95-1.85,4.01-1.48Z"/>
</svg>