<?xml version="1.0" encoding="UTF-8"?>
<svg id="Layer_1" data-name="Layer 1" xmlns="http://www.w3.org/2000/svg" viewBox="0 0 51.42 51.58">
  <defs>
    <style>
      .cls-1 {
        fill: #5d88c6;
      }

      .cls-2 {
        fill: #a2d4a8;
      }
    </style>
  </defs>
  <path class="cls-1" d="M34.16,7.48c1.35-1.26,5.58-6.12,7.23-6.15,1-.02,2.72,1.52,3.56,2.17,1.1.85,5.04,4.27,5.25,5.45.39,2.2-1.34,2.6-2.66,3.85-2.15,2.04-4.16,4.23-6.29,6.29l6.41,4.95c1.09,1.27,1.16,2.51-.61,3.05-6.47,1.96-13.74,2.82-20.24,4.9-2.76.3-5.39,1.26-8.38,1.77-.69.12-.78.71-1.73.15-1.22-.72-.69-2.15-.43-3.28,1.74-7.47,4.39-15.98,6.61-23.4.28-.95,1.56-5.4,1.95-5.79.46-.46.87-.51,1.54-.38,1.81.35,3.64,6.69,4.95,8.11.77.48,2.2-1.09,2.81-1.67Z"/>
  <path class="cls-2" d="M13.93,49.47c-.47-2.09,1.34-2.95,2.33-4.34,1.2-1.68.76-3.25,3.5-2.68.67.14,1.74.86,1.83,1.58.13.91-1.5,2.03-2.01,2.74-.38.53-.55,1.24-.91,1.76-.9,1.3-4.19,3.41-4.75.95Z"/>
  <path class="cls-2" d="M9.23,34.33c-.39.47-5.32,2.06-6.16,2.17-.55.08-2,.3-2.21-.33-.17-.8.02-1.07.62-1.5.98-.71,5.14-2.49,6.32-2.63,1.71-.2,2.42,1.09,1.43,2.29Z"/>
  <path class="cls-2" d="M13.62,13.43c.91,1.06-.42,1.7-1.48,1.61-1.43-.11-6.64-2.99-7.06-4.35-.28-.89.44-1.8,1.36-1.35,1.55,1.41,5.99,2.71,7.17,4.08Z"/>
  <path class="cls-2" d="M8.23,23.03c.2.06.6.59.61.86.12,1.22-3.04,1.57-4,1.57-1.09,0-3.04-.23-2.5-1.79.07-.21.68-.64.81-.64,1.11,0,4.29-.22,5.08,0Z"/>
</svg>