<?xml version="1.0" encoding="UTF-8"?>
<svg id="Layer_1" xmlns="http://www.w3.org/2000/svg" version="1.1" viewBox="0 0 326.63 270.26">
  <!-- Generator: Adobe Illustrator 29.4.0, SVG Export Plug-In . SVG Version: 2.1.0 Build 152)  -->
  <defs>
    <style>
      .st0 {
        fill: #121a36;
      }

      .st1 {
        fill:rgb(239, 228, 105);
      }

      .st2 {
       fill:rgb(239, 228, 105);
      }

      .st3 {
        fill:rgb(239, 228, 105);
      }
    </style>
  </defs>
  <path class="st3" d="M4.8,237.99l-4.8,1.37v-2.06c1.72-.68,3.82.59,4.8.69Z"/>
  <path class="st3" d="M309.02,116.03c.09,0,.8-.68,1.67-.72,3.98-.19,3.73.95,6.38,1.92,1.06.39,2.46-.03,3.61.51,1.76.83,5.28,6.56,5.73,8.69.7,3.3-.5,2.67-1.25,4.73-1.76,4.78-2.64,6.46-6.09,10.35-.84.94-.6,1.69-2.52,1.25,3.94-5.6,9.7-11.31,6.83-18.82-2.08-5.43-9.5-6.25-14.37-7.9Z"/>
  <path class="st3" d="M251.46,76.98c.32,8.39-.38,18.78-.69,27.78-.04,1.32.7,2.75-1.37,2.37-.34-9.74-.58-20.88,2.06-30.15Z"/>
  <path class="st3" d="M154.85,216.07c.27,6.31-1.88,11.49-2.7,17.51-.45,3.29,1.38,9.98-2.78,11.27.29-5.57,2.45-13.16,3.37-18.9.48-3.02-.31-7.33,2.11-9.88Z"/>
  <path class="st3" d="M228.17,2.98c-3.49,2.1-8.2,2.59-12.2,3.91-2.28.75-6.47,3.34-8.36,3.63.72-3.39,6.73-4.21,9.54-5.19,4.61-1.6,6.06-2.57,11.01-2.35Z"/>
  <path class="st3" d="M229.54,2.98c-.38-2.47,4.18-1.14,5.79-1.41,2.47-.41,4.98-2.4,8.1-1.17l5.29,2.58c-6.97-.47-12.4.08-19.19,0Z"/>
  <path class="st3" d="M275.44,113.98c-6.68.32-13.49-1.58-19.87-2.06,6.17-1.52,14.25-.76,19.87,2.06Z"/>
  <path class="st3" d="M300.8,116.03c-6.23-.03-12.6-.66-18.5-2.06,5.81-1.79,13-.28,18.5,2.06Z"/>
  <path class="st3" d="M149.37,248.96c0,.16,1.01.73.58,2.2-1.04,3.57-5.66,9.02-8.81,10.82.96-2.88,3.89-4.58,5.48-7.2,1.06-1.75,1.19-4.23,2.74-5.82Z"/>
  <path class="st3" d="M23.3,235.94c-3.91.66-8.91,1.85-13.02,2.06-.35-1.62.75-1.5,1.85-1.88,3.22-1.12,7.89-1.52,11.17-.17Z"/>
  <path class="st3" d="M31.52,235.94c2.96-1.47,7.39-.62,10.43.22,1.16.32,2.23.16,1.9,1.84-3.91-.21-8.64-1.28-12.33-2.06Z"/>
  <path class="st3" d="M205.56,10.51c-.44,1.45-1.39,1.47-2.45,2-2.97,1.48-6.11,2.94-9.19,4.17-.31-1.48.78-1.5,1.69-2.04,3.33-2,6.67-4.14,9.96-4.12Z"/>
  <path class="st3" d="M187.74,20.11c-2.98,1.71-6.37,4.17-9.59,6.17-.5-3.34,1.93-2.16,3.22-2.95,1.36-.83,4.09-5,6.37-3.22Z"/>
  <path class="st3" d="M259.69,8.46l-8.91-5.48c.08,0,.43-.79,1.49-.57,2.27.48,6.66,3.82,7.42,6.05Z"/>
  <path class="st3" d="M251.46,72.18c.15-3.06-.09-7.23,2.06-9.59,0,.32,1.01,1.19.68,3-.27,1.5-2.05,4.95-2.73,6.59Z"/>
  <path class="st3" d="M106.89,269.51c-.09,0-.78.74-1.69.74-1.87,0-7.67-.52-7.22-2.8,2.66.2,6.17,1.52,8.91,2.06Z"/>
  <path class="st3" d="M259.69,31.07c.23-2.07,1.54-4.69,2.06-6.85,0,.09.72.78.74,1.68.04,1.87-.56,5.3-2.8,5.17Z"/>
  <path class="st3" d="M261.74,16.68c-.27-2.5-1.26-4.56-2.06-6.85,2.55.12,2.88,3.02,2.79,5.17-.04.88-.73,1.59-.74,1.68Z"/>
  <path class="st3" d="M253.52,56.42c.21-1.67,1.03-4.1,2.06-5.48,0,.09.73.73.74,1.67.01,1.69-.87,3.84-2.79,3.81Z"/>
  <path class="st3" d="M257.63,39.29c.21-1.91,1.16-3.81,2.06-5.48,0,.09.73.73.74,1.67,0,1.7-.87,3.84-2.79,3.81Z"/>
  <path class="st3" d="M172.67,29.7c-.35,2.33-3.64,3.59-5.48,4.8.85-3.08,3.17-3.54,5.48-4.8Z"/>
  <path class="st3" d="M255.57,46.83c.22-1.55,1.12-3.52,2.06-4.8,0,.11.65.54.67,1.09.07,1.7-.83,3.73-2.73,3.71Z"/>
  <path class="st3" d="M52.76,240.05c-1.5-.22-3.09-.89-4.11-2.06.1,0,.49-.64,1.03-.63,1.48.04,3.16,1.08,3.08,2.68Z"/>
  <path class="st3" d="M193.22,16.68c.44,2.02-2.49,1.81-4.11,2.74.46-2.67,2.19-2.04,4.11-2.74Z"/>
  <path class="st3" d="M59.61,241.42c-1.02-.28-2.33.24-2.74-1.37.09,0,.71-.95,1.6-.66l1.14,2.03Z"/>
  <path class="st3" d="M133.61,266.09c.3,2.71-2.14,1.35-2.74,1.37.56-1.23,1.97-.98,2.74-1.37Z"/>
  <path class="st3" d="M69.89,245.53c-1.37.06-2.1-.66-2.06-2.06,2.63.43,1.85,1.92,2.06,2.06Z"/>
  <path class="st3" d="M65.09,243.48c-1.03-.16-1.72-.23-2.06-1.37.07,0,.7-1.11,1.39-.4l.67,1.77Z"/>
  <path class="st3" d="M137.72,264.03c-.72.59-1.31.96-1.47,1.99l-1.27-.62c.66-.33,1.37-1.6,2.74-1.37Z"/>
  <path class="st3" d="M165.81,35.87c.06-.04-.27-.75.69-1.37l-.69,1.37Z"/>
  <path class="st3" d="M251.46,74.24v-.69c0,.23,0,.47,0,.69Z"/>
  <g>
    <path class="st0" d="M248.72,2.98c.68.05,1.37-.01,2.06,0l8.91,5.48c.12.36-.12,1.01,0,1.37.79,2.29,1.79,4.35,2.06,6.85-.09,2.48-.07,5.05,0,7.54-.52,2.16-1.82,4.78-2.06,6.85-.1.85,0,1.86,0,2.74-.9,1.67-1.85,3.57-2.06,5.48-.09.85-.01,1.86,0,2.74-.93,1.28-1.83,3.25-2.06,4.8-.17,1.16-.03,2.85,0,4.11-1.02,1.39-1.85,3.81-2.06,5.48-.22,1.78-.05,4.29,0,6.17-2.15,2.36-1.9,6.53-2.06,9.59-.02.45,0,.92,0,1.37v.69c.01.91-.03,1.83,0,2.74-2.63,9.27-2.4,20.41-2.06,30.15.03.91-.07,1.84,0,2.74.05.64-.2,1.31.09,1.93,1.08,1.14,2.44.12,2.65.12,1.13.03,2.3-.08,3.43,0,6.38.47,13.19,2.38,19.87,2.06h6.85c5.9,1.4,12.27,2.03,18.5,2.06,2.72.01,5.5.09,8.22,0,4.86,1.65,12.29,2.47,14.37,7.9,2.87,7.51-2.9,13.23-6.83,18.82-.11.15.11.53,0,.69-2.15.59-4.99,3.55-6.17,5.48-.26.43-.44.93-.69,1.37-1.39-.36-2.1,1.57-2.74,2.74-.1.18.1.52,0,.69-3.64,1.59-6.35,5.6-8.93,8.57-.51.58-.52,1.54-.66,1.71-.12.14-1.65,1.65-2.06,2.06-.15.15-1.71-.22-1.37,1.37-.6.25-7.3,7.3-8.91,8.91l-1.37,1.37c-.23.23-.46.46-.69.69-1.11,1.1-5.02,4.43-5.48,5.48-.08.18.07.47,0,.69-1,0-1.79.36-2.06,1.37v.69c-1.93.19-3.08,1.97-4.11,3.43-.28.4-.4.98-.69,1.37-1.75-.52-1.22,1.24-1.37,1.37-.97.89-.67-.17-2.06,2.06-1.91,1.04-2.93,1.52-3.43,4.11-.21.07-.51-.08-.69,0-3.22,1.51-17.11,16.69-20.88,20.59-1.46,1.51-1.34.6-2.42,2.7-.97.47-2.18.02-2.06,2.06-.33.2-.83.35-1.37.69-.58.36-2.44,1.31-2.6,1.53-.33.47-.05,1.07-.14,1.21-18.52,7.47-18.65,8.68-37.69.69-.32-.14-1.02.13-1.37,0,.77-2.62-2.24-2.43-4.11-3.43-.18-.09-.51.09-.69,0l-1.37-1.37c-1.93-1.11-3.72-2.33-5.48-3.43l-2.06-1.37c-.17-.1-.52.1-.69,0,.02-1.93-1.77-2.5-3.43-2.74-.84-2.45-.86-.88-1.37-1.37-1.22-1.19-1.8-2.74-4.11-2.74-1.85-1.81-2.04-1.65-4.11-2.74-.15-2.21-3.05-2.8-4.8-4.11-.37-.28-1.14-.43-1.37-.69-.85-.96,1.59-1.7-2.06-.69-.48.13-1.56-.3-1.96.09s.06,1.59-.1,1.96c-1.47,3.46-2.06,4.02-2.06,8.22,0,.68-.03,1.37,0,2.06-2.42,2.55-1.63,6.86-2.11,9.88-.92,5.74-3.08,13.33-3.37,18.9-.07,1.35-.03,2.76,0,4.11-1.56,1.6-1.68,4.08-2.74,5.82-1.59,2.62-4.52,4.31-5.48,7.2-.27.16-1.09-.15-1.37,0l-.69.69c-.45.27-.9.99-1.37,1.37-1.37-.23-2.08,1.04-2.74,1.37-.46.23-.91.45-1.37.69-.77.39-2.18.14-2.74,1.37-.9.03-1.87-.11-2.74,0-2.4.29-5.29,1.14-7.54,2.06-4.56-.03-9.15-.03-13.7,0-2.74-.54-6.25-1.86-8.91-2.06-.9-.07-1.83.02-2.74,0-2.31-2.25-6-2.26-8.91-3.43-.36-.14-.83-.46-1.37-.69-.38-.16-1.82-.95-2.74-1.37-.45-.21-.9-.47-1.37-.69.04-2.16-3.1-2.7-4.8-3.43-.19-.08-.49.08-.69,0,.09-2.4-2.5-2.17-4.11-2.74-.11-.27.24-1-.07-1.28-3.32-.4-7.79-4.06-10.89-4.2-.45-.02-.91,0-1.37,0-1.02-1.16-2.61-1.84-4.11-2.06-1.01-.14-2.33.02-3.43,0-1.34-1.58-3.58-1.77-5.48-2.06-.43-.06-.92.04-1.37,0h-.69c-.69,0-1.37,0-2.06,0-1.4-1.48-4.6-1.88-6.52-2.04-7.21-.6-16.95-.49-23.63,2.04-.68-.02-1.37,0-2.06,0h-.69c-1.09.01-2.42-.14-3.43,0-1.87.26-3.53,1.42-5.48,1.37v-7.54l4.8-1.37c1.63.16,3.81.08,5.48,0,4.1-.2,9.1-1.4,13.02-2.06h8.22c3.69.77,8.42,1.84,12.33,2.06,1.58.09,3.21,0,4.8,0,1.02,1.17,2.61,1.84,4.11,2.06,1.14.16,2.89.05,4.11,0,.41,1.61,1.72,1.09,2.74,1.37,1.38.38,1.8.62,3.43.69.34,1.14,1.03,1.21,2.06,1.37.85.13,1.9-.14,2.74,0-.05,1.39.69,2.12,2.06,2.06.3.21,2.07-.13,2.74,0,.33-6.17-.45-12.76-.03-18.87,2.66-39.07,14.31-82.73,31.97-117.4,11.08-21.74,26.4-40.92,44.11-58.33.93-.92,1.82-1.82,2.74-2.74.71-.71,1.37-1.29,2.06-2.06l.69-.69c.42-.48.97-.87,1.37-1.37,2.35-.27,1.72-1.52,2.06-2.06.07-.11.44-.36.69-.69,2.05-.79,5.92-2.77,6.17-4.8.42-.28.95-.41,1.37-.69l.69-1.37c.16-.1.53.1.69,0,1.85-1.21,5.13-2.46,5.48-4.8.28-.15,1.05.15,1.37,0l.69-.69c1.46-1.01,1.73-1.69,3.43-2.74,3.23-1.99,6.62-4.46,9.59-6.17.39-.22.88-.4,1.37-.69,1.62-.94,4.55-.72,4.11-2.74.2-.07.49.08.69,0,3.08-1.23,6.22-2.69,9.19-4.17,1.07-.53,2.01-.55,2.45-2,.66,0,1.46.09,2.06,0,1.89-.29,6.08-2.88,8.36-3.63,4-1.32,8.7-1.8,12.2-3.91.45.02.91,0,1.37,0,6.79.08,12.22-.47,19.19,0ZM246.43,119.03c-1.96-1.26-4.01-1.94-4.52-4.74-.95-5.19-.46-21.52-.06-27.4,1.15-16.98,5.49-40.47,9.78-56.69.3-1.13,1.59-1.87,1.86-3.62.47-2.96.85-9.27-.38-11.89-2-4.23-6.51-4.81-10.87-4.9-36.01-.78-81.14,36.53-103.49,63.07-35.18,41.77-54.37,103.3-57.92,157.23-.27,4.14-.64,15.6.04,19.2.86,4.5,9.66,8.44,13.56,9.73,10.5,3.47,31.57,4.05,40.9-2.51.9-.63,5.38-5.19,5.66-5.99,1.61-4.76,1.46-10.94,2.22-15.59,1.63-9.86,3.63-19.34,5.99-28.95.76-3.08.81-9.58,5.32-10.44,10.16-1.93,18.67,9.02,26.27,14.13,5.55,3.74,22.85,15.04,28.32,16.22,14.84,3.21,25.03-8.34,34.58-17.59,14.52-14.07,27.8-29.37,41.63-44.03,5.03-5.34,32.6-31.75,32.64-36.26.01-1.26-2.7-2.82-3.83-3.03-4.68-.85-13.14-.29-18.46-.73-10.88-.89-21.98-2.55-32.91-3.4-4.15-.32-11.88.84-15.26-.48-.74-.29-.8-1.16-1.07-1.33ZM157.94,201.68v.69c.44-.23.44-.46,0-.69Z"/>
    <path class="st1" d="M5.48,245.53c-.14,2.68-3.29,2.9-5.48,2.74v-1.37c1.95.05,3.61-1.11,5.48-1.37Z"/>
    <path class="st1" d="M236.39,224.98c.55,2.74-1.01,2.04-2.74,2.74-3.86,6.29-19.39,8.84-26.61,7.08-1.76-.43-7.54-2.88-9.17-3.85-1.17-.7-1.88-.92-1.91-2.54,19.04,8,19.16,6.78,37.69-.69.09-.14-.18-.74.14-1.21.15-.22,2.01-1.17,2.6-1.53Z"/>
    <path class="st1" d="M263.11,198.94c-.08,1.24-.64,2.12-1.37,3.08-3.34,4.4-17.33,17.99-21.93,20.21-.14.27.04.92-.32,1.4-.56.73-1.42.47-1.73.66-.13-2.03,1.09-1.59,2.06-2.06,1.07-2.1.96-1.19,2.42-2.7,3.76-3.9,17.66-19.08,20.88-20.59Z"/>
    <path class="st1" d="M41.8,245.53c-7.02.04-14.63-1.58-22.23-.65-3.82.47-3.34.8-7.91.65,6.68-2.53,16.42-2.64,23.63-2.04,1.92.16,5.12.57,6.52,2.04Z"/>
    <path class="st1" d="M60.3,249.64c3.1.14,7.57,3.8,10.89,4.2.31.28-.03,1,.07,1.28,1.61.58,4.2.34,4.11,2.74-.72-.29-3.85-1.34-4-1.49-.36-.37,0-.99-.11-1.25-2.5-.89-3.98-1.79-5.98-2.59-1.75-.7-4.74.66-4.99-2.89Z"/>
    <path class="st1" d="M95.24,267.46c-3.43-.09-1.79-.17-4.63-1.2-1.54-.56-4.31.69-4.28-2.23,2.9,1.16,6.59,1.18,8.91,3.43Z"/>
    <path class="st1" d="M306.96,153.72c-2.93,4.72-6.58,7.24-9.59,10.28-.79.79-1.03,1.12-2.06,2.06-.54.5.86.44-1.37,1.37-.34-1.59,1.22-1.22,1.37-1.37.4-.41,1.93-1.91,2.06-2.06.14-.16.16-1.12.66-1.71,2.58-2.97,5.29-6.98,8.93-8.57Z"/>
    <path class="st1" d="M156.91,205.79c1.73,2.23-1.89,5.06-.69,8.23h-1.37c0-4.21.59-4.77,2.06-8.23Z"/>
    <path class="st1" d="M128.13,267.46c.41,2.13-4.18,2.76-5.88,2.77-.96,0-1.56-.72-1.65-.72,2.25-.91,5.13-1.76,7.54-2.06Z"/>
    <path class="st1" d="M316.56,143.44c-1.13,1.61-1.58,2.42-3.38,4.02-.85.76-.95,1.9-2.79,1.46,1.18-1.93,4.01-4.89,6.17-5.48Z"/>
    <path class="st1" d="M164.44,36.55c-.25,2.03-4.12,4-6.17,4.8,2.83-3.74,2.94-2.67,6.17-4.8Z"/>
    <path class="st1" d="M51.39,247.59c-.11,0-.65.84-2.19.59-1.07-.18-3.87-1.32-3.29-2.64,1.91.28,4.14.48,5.48,2.06Z"/>
    <path class="st1" d="M58.93,249.64c-.09,0-.51.64-1.08.67-1.94.08-3.61-.56-3.03-2.72,1.5.21,3.09.89,4.11,2.06Z"/>
    <path class="st1" d="M167.19,209.22c-1.91-1.01-5.57-1.56-4.8-4.11,1.74,1.31,4.65,1.9,4.8,4.11Z"/>
    <path class="st1" d="M80.85,261.29c-1.69-.79-4.83-1.21-4.8-3.43,1.7.72,4.83,1.27,4.8,3.43Z"/>
    <path class="st1" d="M190.48,224.98c1.87.99,4.88.81,4.11,3.43-1.67-.63-4.02-1.28-4.11-3.43Z"/>
    <path class="st1" d="M175.41,214.7l-.36.69c-.93-.43-2.92-1.56-3.58-2.25-.34-.36-.09-1.1-.17-1.18,2.31,0,2.89,1.55,4.11,2.74Z"/>
    <path class="st1" d="M270.65,191.4c-1.1,1.5-1.06,1.04-1.37,1.37-.81.87.39.73-2.06,2.06-1.25,2-.43,3.07-3.43,4.11.5-2.59,1.51-3.07,3.43-4.11,1.39-2.22,1.09-1.16,2.06-2.06.15-.13-.38-1.89,1.37-1.37Z"/>
    <path class="st1" d="M275.44,186.61c-.15,1.49-2.41,3.8-4.11,3.43,1.03-1.46,2.18-3.24,4.11-3.43Z"/>
    <path class="st1" d="M180.2,218.81c-1.99-1.18-2.52-.11-3.43-2.74,1.65.24,3.44.81,3.43,2.74Z"/>
    <path class="st1" d="M84.96,263.35l-.36.67c-1.53.31-2.37-.48-2.38-2.04.92.42,2.36,1.21,2.74,1.37Z"/>
    <path class="st1" d="M309.7,150.29c-.34.61-.3,2.28-.8,2.64l-1.94.1c.64-1.17,1.35-3.1,2.74-2.74Z"/>
    <path class="st1" d="M249.41,109.87l2.74,2.06c-.21,0-1.57,1.02-2.65-.12-.29-.62-.04-1.3-.09-1.93Z"/>
    <path class="st1" d="M282.98,178.38c-1.29,2.08-2.63,5.86-5.48,5.48.46-1.05,4.37-4.38,5.48-5.48Z"/>
    <path class="st1" d="M277.5,184.55c-.11.33.1.94,0,1.37h-2.06c.26-1.01,1.06-1.36,2.06-1.37Z"/>
    <path class="st1" d="M158.96,203.74c3.65-1.01,1.2-.27,2.06.69l-2.06-.69Z"/>
    <path class="st1" d="M157.59,42.03c-.34.53.29,1.78-2.06,2.06.62-.77.25-2.45,2.06-2.06Z"/>
    <path class="st1" d="M151.43,48.2c-.92.92-1.81,1.82-2.74,2.74.91-1.1,1.06-2.99,2.74-2.74Z"/>
    <path class="st1" d="M182.94,220.18c-.78-.49-1.56-1.07-2.06-1.37l2.06,1.37Z"/>
    <path class="st1" d="M283.67,177.7l1.37-1.37c-.46.46-.9.91-1.37,1.37Z"/>
    <path class="st1" d="M189.8,224.98c-.92-.49-1.24-1.3-1.37-1.37l1.37,1.37Z"/>
    <path class="st1" d="M8.91,245.53h.69c-.2,0-.48,0-.69,0Z"/>
    <path class="st1" d="M43.85,245.53h.69-.69Z"/>
    <path class="st1" d="M153.48,46.14c.22-.24.48-.44.69-.69l-.69.69Z"/>
    <path class="st1" d="M174.04,29.7c.19-.09.42-.5.69-.69l-.69.69Z"/>
    <path class="st1" d="M139.09,262.66l.69-.69c-.22.12-.42.53-.69.69Z"/>
    <path class="st2" d="M246.43,119.03c.27.17.34,1.04,1.07,1.33,3.38,1.32,11.1.16,15.26.48,10.93.85,22.03,2.52,32.91,3.4,5.32.43,13.78-.12,18.46.73,1.13.21,3.84,1.77,3.83,3.03-.04,4.5-27.61,30.92-32.64,36.26-13.83,14.67-27.11,29.96-41.63,44.03-9.55,9.25-19.74,20.8-34.58,17.59-5.47-1.18-22.77-12.49-28.32-16.22-7.59-5.11-16.1-16.06-26.27-14.13-4.51.86-4.57,7.35-5.32,10.44-2.36,9.62-4.36,19.09-5.99,28.95-.77,4.65-.61,10.83-2.22,15.59-.27.81-4.76,5.36-5.66,5.99-9.33,6.57-30.4,5.98-40.9,2.51-3.91-1.29-12.71-5.23-13.56-9.73-.69-3.6-.32-15.06-.04-19.2,3.55-53.93,22.74-115.46,57.92-157.23,22.35-26.53,67.48-63.85,103.49-63.07,4.36.09,8.87.67,10.87,4.9,1.24,2.62.85,8.93.38,11.89-.28,1.75-1.56,2.48-1.86,3.62-4.29,16.21-8.63,39.71-9.78,56.69-.4,5.88-.89,22.2.06,27.4.51,2.8,2.56,3.48,4.52,4.74ZM186.12,90.45c3.97-7.34-4.7-10.22-7.28-5.44-1.25,2.31-1.66,5.93-2.53,8.29-1.39,3.75-6.51,9.55-.89,12.12s7.84-10.33,9.38-13.89c.36-.83,1.21-.89,1.32-1.08ZM213.58,92.88c-2.95.87-4.12,10.26-5.07,13.42-.63,2.11-2.76,3.2.14,5.6,1.59,1.32,4.11.82,5.41-.73,1.16-1.38,4-9.43,4.35-11.41.78-4.43.84-8.57-4.83-6.89ZM175,147.97c-2.29-2.58-5.69-10.83-9.2-9.74-8.27,2.55,3.25,15.5,6.51,18.24,10.7,9.01,30.77,13.57,41.46,2.37,2.64-2.76,8.44-13.57,2.38-14.71s-4.93,3-6.11,6.18c-3.33,9.02-17.47,8.57-24.97,5.73-1.96-.74-8.47-6.29-10.06-8.08Z"/>
    <path class="st1" d="M157.94,201.68c.44.23.44.46,0,.69v-.69Z"/>
    <path class="st0" d="M175,147.97c1.59,1.79,8.1,7.34,10.06,8.08,7.5,2.84,21.64,3.29,24.97-5.73,1.18-3.19-.03-7.34,6.11-6.18s.26,11.95-2.38,14.71c-10.69,11.2-30.76,6.63-41.46-2.37-3.26-2.74-14.77-15.69-6.51-18.24,3.51-1.08,6.91,7.16,9.2,9.74Z"/>
    <path class="st0" d="M186.12,90.45c-.11.2-.96.25-1.32,1.08-1.54,3.55-3.85,16.42-9.38,13.89s-.5-8.37.89-12.12c.87-2.36,1.28-5.98,2.53-8.29,2.58-4.77,11.25-1.89,7.28,5.44Z"/>
    <path class="st0" d="M213.58,92.88c5.67-1.68,5.61,2.45,4.83,6.89-.35,1.98-3.19,10.03-4.35,11.41-1.3,1.55-3.82,2.05-5.41.73-2.9-2.4-.77-3.5-.14-5.6.94-3.16,2.12-12.55,5.07-13.42Z"/>
  </g>
</svg>