<?xml version="1.0" encoding="UTF-8"?>
<svg id="Layer_1" xmlns="http://www.w3.org/2000/svg" version="1.1" viewBox="0 0 318.26 264.89">
  <!-- Generator: Adobe Illustrator 29.2.1, SVG Export Plug-In . SVG Version: 2.1.0 Build 116)  -->
  <defs>
    <style>
      .st0 {
        fill: #c1e1b8;
      }
    </style>
  </defs>
  <path d="M125.5,200.34c-3.62,16.35,31.44,26.04,21.42,42.92-8.08,13.6-28.51-6.09-34.25-13.59-4.77-6.23-11.03-22.78-20.21-19.89-7.26,2.28-16.56,21.89-23.47,28.55-19.76,19.06-60.44,19.42-68.22-10.77-3.99-15.48,8.07-40.3,26.25-38.25,6.34.71,14.32,9.64,20.52,3.56,7.78-7.63-5.17-22.88,4.96-34.03,10.8-11.88,44.47-14.76,51.4-25.6,2.84-4.44,2.84-11.78,9.35-12.74,7.66-1.13,8.1,11.72,13.18,13.39,10.23,3.37,29.66-7.03,36.6-14.52,3.61-3.89,6.13-12.77,8.93-15.07,3.28-2.7,8.65-1.33,12.44-3.05-1.13-11.47-13.67-8-13.99-21.4-.04-1.85,1.91-9.53-.42-9.49-5.08,3.55-10.47,9.18-11.42,15.56-1.1,7.41.3,13.02-3.65,20.35-3.29,6.11-19.75,19.07-26.48,14.6-1.88-1.25-.47-6.72-6.95-10.05-10.7-5.48-23.07,1.68-25.76-15.23-4.55-28.54,27.44-37.35,42.79-51.72C157.31,26.3,160.36-3.45,194,.33c8.1.91,28.9,12,32.69,19.31,3.57,6.89,1.01,11.67-2.78,17.62s-12.99,10.82-5.34,17.51c6.28,5.49,17.78,4.66,23.47-1.37,7.39-7.83,2.98-21.66,11.42-28.58,7.99-6.54,28.58-1.6,38.24.82,10.15,2.54,21.13,4.72,26.01,14.99l.55,125.99c-3.56,12.05-13.12,9.2-21.99,12.01-10.03,3.18-10.26,15.21-14.61,23.39-8.15,15.31-21.44,13.34-34.1,4.76-7.81-5.3-12.94-16.71-22.56-7.42-6.39,6.16-4.89,14.14-7.99,21.01-4.37,9.66-19.37,9.16-28.09,11.91-2.96,4.09,7.6,9.56,8.53,14.63,2.54,13.76-18,22.14-27.91,15.9-11.65-7.33-9.5-25.72-14.85-37.15-2.65-5.65-7.98-11.25-12.72-15.28-1.86-1.58-15.14-11.41-16.47-10.02ZM131.75,115.07c6.01,5.03,18.01-7.14,20.22-12.76,2.91-7.37,1.29-15.41,3.62-21.38,1.94-4.97,17.73-23.8,19.87-13.08,1.03,5.2-2.6,11.69-.45,16.46,1.79,3.97,11.34,4.74,13.82,13.2,3.42,11.64-8.85,8.35-13.32,10.33-3.31,1.47-5.56,8.66-8.04,11.96-8.08,10.71-31.33,23.75-44.54,17.59-5.61-2.62-3.67-7.4-6.38-10.61-4.87-5.77-7.54,6.89-10.08,10.02-9.73,12-43.49,13.91-51.98,27.02-6.5,10.03,6.72,26.13-7.08,33.92-10.41,5.88-18.05-10.02-30.87-1.87-14,8.9-15.77,31.97-3.57,43.48,17.98,16.96,44.72,6.19,58.49-10.55,6.64-8.07,12-24.39,24.52-23.53,13.27.91,19.94,31.75,37.96,37.11,3.49,1.04,6.37,1.77,9.58-.52,4.86-14.63-16.4-19.61-20.76-32.29-2.06-6.01-2.98-14.72,6-13.08,4.21.77,24.27,17.78,27.17,21.91,7.86,11.17,4.26,26.71,11.57,36.43,5.59,7.43,16.63,7.66,22.52.53,8.21-9.93-5.62-13.71-5.23-21.37.5-10.1,20.19-6.51,26.76-13.1,5.25-5.26,2.48-17.83,11.6-25.4,14.35-11.92,21.14,7.01,33.11,11.58,20.15,7.69,21.43-9.49,27.38-22.09,8.54-18.06,27.66-3.77,30.91-24.09l-.52-117.58c-1.89-7.27-12.35-10.32-18.75-12.25-9.02-2.72-30.42-7.78-38.29-2.72-8.76,5.64-2.65,22.39-14.99,31.01-7.4,5.17-20.96,3.57-27.41-2.6-12.93-12.38,12.25-20.13,8.66-33.66-1.92-7.23-19.75-15.57-26.73-17.28-31.47-7.69-37.43,24.74-56.51,41.56-12.47,11-36.98,21.11-39.44,39.56-3.12,23.34,13.15,13.78,26.16,21.67,3.89,2.36,3.63,5.32,5.01,6.48Z"/>
  <path d="M49.22,89.51c11.71-2.51,7.44,19.8,11.22,22.38,2.74,1.88,8.59-3.41,12.35-1.37,11.79,10.06-3.8,16.81-10.78,22.83-8.98,7.75-15.67,17.67-29.8,14.74s-17.25-30.31-10.73-40.28c3.64-5.56,8.29-3.42,9.07-3.94,1.25-.84,1.82-6.76,4.96-9.02,4.93-3.56,6.21.28,7.5.31,1.16.02,2.75-4.91,6.22-5.66ZM57.78,117.04c-4.91-4.29-3.12-19.8-6.26-22.24-1.8-1.39-2.97,1.05-3.87,2.2-2.85,3.64-2.61,8.02-5.68,11.33-5.69-1.06,2.33-9.48-4.47-9.99-3.52,4.07-1.95,18.66-3.48,21.03-3.76,5.79-4.53-10.78-6.05-11.03-2.19-.44-4.7,6.24-5.04,7.94-3.29,16.31,4.9,35.57,23.88,24.88,2.5-1.41,25.01-19.92,25.51-21.52,3.5-11.2-10.96.52-14.54-2.61Z"/>
  <path class="st0" d="M131.75,115.07c-1.38-1.16-1.12-4.12-5.01-6.48-13.01-7.89-29.28,1.67-26.16-21.67,2.47-18.45,26.97-28.56,39.44-39.56,19.07-16.82,25.04-49.25,56.51-41.56,6.97,1.7,24.8,10.05,26.73,17.28,3.59,13.52-21.59,21.27-8.66,33.66,6.45,6.18,20.01,7.78,27.41,2.6,12.34-8.62,6.23-25.37,14.99-31.01,7.87-5.06,29.27,0,38.29,2.72,6.4,1.93,16.85,4.99,18.75,12.25l.52,117.58c-3.24,20.33-22.37,6.03-30.91,24.09-5.95,12.6-7.23,29.78-27.38,22.09-11.97-4.57-18.76-23.5-33.11-11.58-9.12,7.57-6.35,20.15-11.6,25.4-6.57,6.58-26.26,2.99-26.76,13.1-.38,7.66,13.44,11.44,5.23,21.37-5.89,7.12-16.93,6.89-22.52-.53-7.31-9.71-3.72-25.25-11.57-36.43-2.9-4.13-22.96-21.14-27.17-21.91-8.98-1.64-8.06,7.07-6,13.08,4.35,12.68,25.62,17.66,20.76,32.29-3.21,2.29-6.09,1.56-9.58.52-18.02-5.36-24.69-36.19-37.96-37.11-12.52-.86-17.88,15.46-24.52,23.53-13.77,16.75-40.52,27.51-58.49,10.55-12.2-11.51-10.43-34.58,3.57-43.48,12.83-8.15,20.46,7.75,30.87,1.87,13.79-7.79.58-23.89,7.08-33.92,8.49-13.11,42.25-15.02,51.98-27.02,2.54-3.13,5.21-15.79,10.08-10.02,2.71,3.21.77,7.99,6.38,10.61,13.21,6.16,36.46-6.88,44.54-17.59,2.48-3.29,4.73-10.49,8.04-11.96,4.47-1.98,16.74,1.31,13.32-10.33-2.49-8.46-12.03-9.23-13.82-13.2-2.15-4.77,1.48-11.26.45-16.46-2.13-10.72-17.92,8.1-19.87,13.08-2.33,5.97-.72,14.01-3.62,21.38-2.21,5.62-14.21,17.79-20.22,12.76ZM175.21,136.53c-7.77,2.31-5.76,19.74,4.57,16.61,8.95-2.71,6.22-19.82-4.57-16.61ZM213.22,136.51c-10.69,2.26-7.32,19.57,2.72,17.83,9.48-1.64,7.14-19.92-2.72-17.83ZM208.49,162.34c-4.78-.97-5.03,3.51-9.1,5.39-7.05,3.25-16.83,1.8-21.53-4.4-9.71.33,1.18,8.13,5.62,9.52,8.19,2.56,25.31.42,25.01-10.51Z"/>
  <path class="st0" d="M57.78,117.04c3.59,3.13,18.04-8.59,14.54,2.61-.5,1.59-23.01,20.11-25.51,21.52-18.99,10.69-27.18-8.57-23.88-24.88.34-1.7,2.85-8.37,5.04-7.94,1.52.24,2.29,16.82,6.05,11.03,1.54-2.37-.04-16.96,3.48-21.03,6.81.52-1.22,8.93,4.47,9.99,3.06-3.31,2.83-7.69,5.68-11.33.9-1.15,2.07-3.59,3.87-2.2,3.14,2.43,1.35,17.95,6.26,22.24Z"/>
  <path d="M213.22,136.51c9.86-2.08,12.2,16.19,2.72,17.83-10.04,1.74-13.41-15.57-2.72-17.83Z"/>
  <path d="M175.21,136.53c10.8-3.21,13.53,13.9,4.57,16.61-10.34,3.13-12.35-14.3-4.57-16.61Z"/>
  <path d="M208.49,162.34c.3,10.92-16.82,13.07-25.01,10.51-4.45-1.39-15.33-9.2-5.62-9.52,4.69,6.2,14.48,7.65,21.53,4.4,4.08-1.88,4.32-6.36,9.1-5.39Z"/>
</svg>