<?xml version="1.0" encoding="UTF-8"?>
<svg id="Layer_1" data-name="Layer 1" xmlns="http://www.w3.org/2000/svg" viewBox="0 0 51.42 51.58">
  <defs>
    <style>
      .cls-1 {
        fill: #283542;
      }

      .cls-2 {
        fill: #c5e0c6;
      }
    </style>
  </defs>
  <g>
    <path class="cls-2" d="M2.23,47.1c-.9-8.56,6.75-14.31,14.97-13.42-.74-2.09-3.3-2.19-4.6-3.55-5.07-5.33-5.06-15.07.01-20.39,1.44-1.51,5.79-3.96,7.86-4.21,1.84-.23,4.45-.23,6.29,0,6.71.83,12.66,9.76,11.68,16.34-.18,1.22-2.12,6.02-2.81,7.13-.75,1.21-4.3,3.06-3.46,3.98s6.36-.8,7.53-1.36c3.35-1.58,2.51-5.89,5.99-6.82,6.05-1.62,2.74,8.69.74,11.37-3.14,4.21-8.4,5.1-10.11,7.05-1.3,1.47-.14,2.72-.24,4.58l-25.3.71c.23-2.97,1.45-6,2-8.26.13-.55,1.53-2.01-.23-2.32-1.52-.27-3.7,6.6-3.91,7.76l-1.17,2.15c-1.82.07-3.58.16-5.25-.74ZM19.2,21.86c-3.74-2.4-.75,3.32.57,4.7,2.07,2.17,3.58,2.46,5.94.37.86-.76,3.95-5.07,1.13-5.23-1.25.68-1.22,4.28-3.58,4.25-2.17-.02-3.38-3.65-4.06-4.09Z"/>
    <path class="cls-1" d="M2.23,47.1c-7.19-3.85,4.93-14.57,9.26-15.88C-1.32,18.28,13.74-2.6,30.52,4.63c9.57,4.12,13.15,17.27,6.64,25.53,3.45.17,3.25-3.21,4.98-5.29,6.85-8.23,13.78,3.71,5.37,13.08-3.93,4.37-9.84,3.94-11.43,9.86l-1.06-4.93c1.72-1.95,8.27-2.49,11.41-6.7,2-2.68,5.31-12.99-.74-11.37-3.48.93-2.64,5.24-5.99,6.82-1.17.55-6.71,2.25-7.53,1.36s2.71-2.77,3.46-3.98c.68-1.11,2.62-5.91,2.81-7.13.98-6.59-4.97-15.51-11.68-16.34-1.84-.23-4.45-.23-6.29,0-2.07.26-6.42,2.7-7.86,4.21-5.07,5.32-5.08,15.06-.01,20.39,1.3,1.36,3.86,1.46,4.6,3.55-8.22-.89-15.87,4.86-14.97,13.42Z"/>
    <path class="cls-1" d="M10.79,47.1c-.12.32.11.97,0,1.41h-2.13c.08-.89-.16-1.98,0-2.82.21-1.16,2.39-8.03,3.91-7.76,1.75.31.36,1.77.23,2.32-.56,2.26-1.16,4.68-2,6.85Z"/>
    <path class="cls-1" d="M19.2,21.86c.69.44,1.89,4.07,4.06,4.09,2.36.03,2.32-3.57,3.58-4.25,2.82.16-.27,4.46-1.13,5.23-2.36,2.09-3.87,1.8-5.94-.37-1.31-1.38-4.3-7.1-.57-4.7Z"/>
  </g>
  <path class="cls-1" d="M18.36,14.63c.83-.66,2.01-.23,2.29.76.28.86-.24,2.07-.82,2.79-1.09,1.29-2.13.64-2.36-.71-.21-.93.06-2.19.82-2.79l.07-.05Z"/>
  <path class="cls-1" d="M23.38,14.14c.4-.98,1.64-1.17,2.37-.44,1.55,1.31.43,5.96-1.75,3.35-.67-.74-1.05-2-.62-2.91Z"/>
</svg>