<?xml version="1.0" encoding="UTF-8"?>
<svg id="Layer_2" data-name="Layer 2" xmlns="http://www.w3.org/2000/svg" viewBox="0 0 269.37 272.36">
  <defs>
    <style>
      .cls-1 {
        fill: #0d344b;
      }

      .cls-2 {
        fill: #aed79c;
      }
    </style>
  </defs>
  <g id="Layer_1-2" data-name="Layer 1">
    <g>
      <path class="cls-2" d="M181.23,154.16c-.2,1.96.35,3.71.95,5.54,6.61,19.94,22.38,28.17,24.04,52.97,1.39,20.83-6.79,45.12-26.3,54.68-8.05,3.95-21.83,6.76-30.92,3.73-1.2-.4-7.69-3.48-9.75-4.44-15.88-7.36-23.8-21.18-43.4-19.35-20.82,1.95-26.22,19.34-54.17,10.93C7.95,248.07-8.4,200.83,4.29,168.93c2.38-5.99,12.56-23.21,16.92-28.28,13.99-16.27,45.07-30.48,45.1-54.98.01-10.59-6.05-16.58-10.96-25.15-1.78-3.11-4.43-6.54-5.6-9.38C37.59,21.74,62.19-9.41,93.22,2.67c11.31,4.41,13.28,11.7,16.57,22.43,2.48,8.1,3.21,18.76,6.24,26.76,7.61,20.13,22.46,11.42,37.72,10.31,7.91-.57,20.94-.38,27.77,3.95,16.09,10.23,23.74,32.1,17.64,50.26-.29.85-1.54.86-1.82,1.57-3.16,8.01-6.6,16.5-14.1,21.2-9.91-.18-30.77-3.82-25.55,12.06,2.34,7.13,18.12,3.05,23.55,2.94Z"/>
      <path class="cls-1" d="M183.23,139.16c.18,0,1.57,1.04,3.38,1.07,18.86.31,37.77-.37,56.61-.08l-29.46-31.05c-1.18-11.7,7.55-11.77,14.96-4.94,11.01,10.16,23.57,23.82,33.98,35.02,2.95,3.17,7.42,4.07,6.55,10.42-.43,3.13-3.27,3.31-4.67,4.9-10.19,11.6-23.46,25.29-34.83,35.69-3.59,3.29-10.7,9.95-14.96,3.91-5.45-7.74,3.82-12.31,7.99-16.91,1.28-1.42,1.44-3.5,2.43-4.57,3.6-3.87,13.5-10.92,16.07-14.93.79-1.23,1.25-1.98.95-3.54-20.31.29-40.69-.41-61,0-5.44.11-21.22,4.19-23.55-2.94-5.21-15.89,15.65-12.25,25.55-12.06Z"/>
    </g>
  </g>
</svg>