<?xml version="1.0" encoding="UTF-8"?>
<svg id="Layer_2" data-name="Layer 2" xmlns="http://www.w3.org/2000/svg" viewBox="0 0 468.78 328.4">
  <defs>
    <style>
      .cls-1 {
        fill: #9BCDD0;
      }
    </style>
  </defs>
  <g id="_àð_1" data-name="˜àð_1">
    <path class="cls-1" d="M455.4,107.49c-10.61-26.58-27.54-50.35-50.17-67.99-21.38-16.67-46.78-27.66-73.13-33.67-54.51-12.44-112.65-4.3-163.53,18.02-52.07,22.85-96.98,61.16-126.68,109.74C11.65,183.05-3.13,241.96.55,299.83c.44,6.9,1.17,13.77,2.11,20.62.09.66.85,1.08,1.44,1.1,46.74,1.75,93.41,5.1,140.15,6.85.65.02,1.08-.3,1.29-.75.13-.2.21-.45.21-.75.52-48.22,2.41-106.53,45.06-138.23,36.02-26.77,91.61-14.15,110.53,27.23,10.5,22.97,8.9,50.82-4.77,72.11-.63.97.19,2.26,1.29,2.26,47.99.1,95.97.2,143.95.3.49,0,1.08-.28,1.3-.74,25.91-56.85,35.99-122.97,12.29-182.34Z"/>
  </g>
</svg>