<?xml version="1.0" encoding="UTF-8"?>
<svg id="Layer_2" data-name="Layer 2" xmlns="http://www.w3.org/2000/svg" viewBox="0 0 357.59 357.92">
  <defs>
    <style>
      .cls-1 {
        fill: #f6dcac;
      }
    </style>
  </defs>
  <g id="_àð_1" data-name="˜àð_1">
    <path class="cls-1" d="M357.45,105.64c-9.04-19.58-18.08-39.16-27.13-58.74-.34-.75-1.33-.69-1.85-.24-29.63,25.25-59.26,50.5-88.89,75.74-.06-35.08-.13-70.17-.2-105.25,0-.48-.36-1.06-.87-1.14-17.17-2.99-34.34-5.99-51.51-8.98-.8-.14-1.42.32-1.5,1.14-2.67,28.38-5.36,56.75-8.03,85.13C159.14,62.38,140.8,31.48,122.48.57c-.42-.7-1.29-.72-1.86-.24-12.77,10.67-25.54,21.32-38.3,31.99-.29.24-.45.8-.31,1.15,14.89,36.83,34.62,71.5,58.69,103.09-37.5-13.27-76.14-23.17-115.4-29.57-.77-.13-1.48.31-1.5,1.14-.58,18.25-1.16,36.51-1.74,54.76-.02.6.56,1.25,1.18,1.18,42.46-4.07,85.4.93,125.76,14.63C99.64,196.81,50.26,214.92.89,233.03c-.55.21-1.07.82-.83,1.45,10.3,27.01,20.58,54.03,30.87,81.04.28.71,1.02,1.1,1.74.7,39.93-22.08,79.84-44.16,119.77-66.25-5.05,35.48-10.1,70.97-15.14,106.45-.13.87.5,1.7,1.45,1.45,28.39-7.42,57.99-9.17,87.05-5.06.72.1,1.54-.29,1.5-1.14-1.51-32.1-3.02-64.21-4.53-96.32,13.37,24.51,26.75,49.02,40.12,73.53.28.51,1.12.8,1.63.43,17.99-13.62,35.98-27.25,53.97-40.87.65-.49.77-1.21.24-1.85-18.81-23.43-37.62-46.87-56.43-70.3,28.17.85,56.35,1.71,84.52,2.58.64.02,1.19-.56,1.18-1.18-.05-16.87-.09-33.74-.15-50.61,0-.48-.36-1.06-.87-1.14-27.21-4.64-54.43-9.27-81.63-13.91,30.55-14.93,61.12-29.84,91.68-44.77.61-.3.67-1.07.42-1.62Z"/>
  </g>
</svg>