<?xml version="1.0" encoding="UTF-8"?>
<svg id="Layer_2" data-name="Layer 2" xmlns="http://www.w3.org/2000/svg" viewBox="0 0 506.17 292.73">
  <defs>
    <style>
      .cls-1 {
        fill: #f6dcac;
      }
    </style>
  </defs>
  <g id="_àð_1" data-name="˜àð_1">
    <path class="cls-1" d="M492.47,152.09c-9.31-10.22-21.6-16.13-34.74-18.93,10.03-12.68,16.3-28.59,15.38-44.88-2.18-38.25-43.86-54.15-77.01-47.34-13.12,2.69-25.31,7.98-36.95,14.44-.21-1.62-.45-3.22-.75-4.83-3.27-17.57-12.82-35.14-28.79-44.12-18.99-10.68-42.1-6.28-61.58.54-18.52,6.48-35.92,16.01-51.45,27.99-9.28,7.17-17.86,15.19-25.61,23.96-6.5-12.91-16.18-23.46-31.49-27.19-25.8-6.27-50.91,9.8-64.47,30.82-1.4,2.17-2.71,4.39-3.93,6.65-14-1.33-28.35.76-41.41,6.23-23.8,9.96-40.93,31.21-47.14,56.1-6.12,24.48-1.02,50.36,14.67,70.22,15.71,19.88,40.07,32.44,65.52,32.47,12.71.02,24.9-2.69,36.56-7.12.55,14.19,5.43,28.26,14.79,40.02,22.04,27.68,62.5,33.04,92.53,15.49,6.17-3.61,11.78-8.04,16.75-13.09,4.9,2.27,9.98,4.15,15.07,5.67,31.94,9.56,67.35,5.14,96.75-10.22,10.1-5.27,19.44-11.86,27.72-19.61,25.15,6.19,52.23,4.68,76.35-5.06,17.49-7.06,34.98-18.9,43.03-36.57,8.09-17.73,3.01-37.58-9.8-51.65Z"/>
  </g>
</svg>