<?xml version="1.0" encoding="UTF-8"?>
<svg id="Layer_2" data-name="Layer 2" xmlns="http://www.w3.org/2000/svg" viewBox="0 0 438.72 398.86">
  <defs>
    <style>
      .cls-1 {
        fill: #028393;
      }
    </style>
  </defs>
  <g id="_àð_1" data-name="˜àð_1">
    <path class="cls-1" d="M399.14,60.23c-27.58-24.47-64.43-35.45-100.93-34.64-17.18.39-34.74,2.87-50.66,9.59-11.24,4.75-22.16,11.85-29.18,21.97-16.68-27.34-44.88-47.18-76.1-54.35-34.74-7.98-70.84,1.48-98.38,23.8-13.64,11.05-25,25.06-32.63,40.9C3.1,84.44-.48,103.29.05,122.05c1.12,39.5,19.4,77.19,45.21,106.47,27.86,31.6,63.78,54.72,100.29,75.07,4.11,2.29,8.25,4.56,12.39,6.8-26.22,10.76-35.25,47.38-17.69,69.51,9.15,11.53,23.73,18.15,38.29,18.89,15.6.81,30.38-5.63,40.8-17.2,10.75-11.93,16.4-28,15.66-43.96,11.9,25.72,28.61,53.16,59.28,56.74,13.38,1.55,27.37-2.53,35.81-13.48,8.67-11.25,9.92-26.77,6.6-40.2-4.43-17.94-16.73-32.66-28.44-46.46,33.06-9.93,64.69-26.55,89.02-51.36,24.51-25,40.48-58.58,41.41-93.86.89-34.2-14.08-66.19-39.54-88.78Z"/>
  </g>
</svg>