<?xml version="1.0" encoding="UTF-8"?>
<svg id="Layer_2" data-name="Layer 2" xmlns="http://www.w3.org/2000/svg" viewBox="0 0 380.76 430.26">
  <defs>
    <style>
      .cls-1 {
        fill: #028393;
      }
    </style>
  </defs>
  <g id="_àð_1" data-name="˜àð_1">
    <path class="cls-1" d="M379.84,217.24c-2.89-9.08-11.07-14.54-19.41-18.13-18.86-8.09-40.18-10.91-60.57-9.16-16.11,1.38-31.83,5.61-46.32,12.52,13.01-11.34,25.05-23.76,35.96-37.18,7.48-9.23,14.45-18.89,20.81-28.93,6.25-9.88,13.14-20.42,16.42-31.75,2.59-8.93,2.23-19.28-3.84-26.81-6.42-7.97-16.88-8.67-26.09-5.9-19.91,5.97-38.19,22.47-51.15,38.17-10.06,12.2-18.05,25.95-23.61,40.63,4.01-42.68-1.78-86.14-17.33-126.21-3.26-8.38-7.04-19.35-15.92-23.37-7.98-3.61-14.7,1.99-17.88,9.06-4.98,11.12-7.14,24.22-9.5,36.12-2.58,13.05-4.43,26.27-5.53,39.52-1.4,16.78-1.57,33.61-.57,50.37-9.75-11.36-20.31-22.04-31.6-31.92-9.28-8.12-19.03-15.71-29.19-22.69-8.76-6.04-18.92-14.02-30.01-14.57-22.79-1.14-18.86,27.45-15.23,41.55,5.33,20.68,15.58,39.95,29.31,56.29,11.62,13.86,25.77,25.38,41.61,33.93-13.47-2.81-27.16-4.48-40.94-4.93-10.5-.34-21.03.03-31.49,1.11-9.06.93-18.5,1.94-27.13,5.01-12.45,4.43-25.25,17.26-19,31.51,5.75,13.12,23.12,15.33,35.5,17.14,22.1,3.22,44.19,6.45,66.29,9.66-30.36,10.71-55.42,34.73-67.04,64.91-5.06,13.16-9.14,33.23,4.69,42.75,16.69,11.48,35.83-3.69,48.72-13.64,19.69-15.21,38.6-31.4,56.71-48.47-2.21,20.65-1.94,41.46.99,62.03,2.51,17.74,5.62,38.77,17,53.35,9.7,12.41,25.57,14.84,38.15,4.9,15.12-11.95,16.84-33.81,17.82-51.61,1.31-23.4-1.18-46.88-7.05-69.56,17.65,15.62,35.31,31.25,52.96,46.88,8.52,7.54,16.76,15.72,25.87,22.54,6.79,5.08,15.28,8.85,23.86,6.44,17.51-4.91,12.04-25.89,5.2-37.21-10.03-16.63-24.01-31.61-38.49-44.44-15.8-13.98-33.48-25.67-52.51-34.77,25.02-3.81,50.04-7.64,75.06-11.45,13.39-2.04,26.79-4.09,40.19-6.14,9.16-1.4,19.83-1.96,27.67-7.49,6.56-4.62,9.05-12.43,6.61-20.07Z"/>
  </g>
</svg>