<?xml version="1.0" encoding="UTF-8"?>
<svg id="Layer_2" data-name="Layer 2" xmlns="http://www.w3.org/2000/svg" viewBox="0 0 276.52 432.03">
  <defs>
    <style>
      .cls-1 {
        fill: #faaa68;
      }
    </style>
  </defs>
  <g id="_àð_1" data-name="˜àð_1">
    <path class="cls-1" d="M246.29,261.38c-1.2-.98-2.42-1.92-3.66-2.84,2.3-3.36,4.42-6.88,6.32-10.57,10.19-19.73,14.28-42.61,11.29-64.64-2.49-18.31-10.13-35.09-21.31-49.08,2.09-4.19,3.8-8.6,5.08-13.23,5.6-20.2,3.2-42.06-6.13-60.75C213.37,11.11,155.14-5.31,104.07,1.45,63.92,3.37,29.16,38.07,22.26,76.93c-3.37,19,.13,38.57,8.81,55.47-7.91,9.99-14.04,21.4-17.79,33.32-10.9,34.58-4.19,71.67,16.32,100.02-13.06,12.52-22.78,28.51-27.11,46.27-9.5,38.93,8.94,82.19,42.44,103.7,41.27,26.52,97.71,16.57,140.55-.6,21.95-8.81,43.36-20.62,61.45-35.97,16.77-14.23,29.3-32.94,29.6-55.54.31-24.04-11.74-47.2-30.23-62.22Z"/>
  </g>
</svg>