<?xml version="1.0" encoding="UTF-8"?>
<svg id="Layer_2" data-name="Layer 2" xmlns="http://www.w3.org/2000/svg" viewBox="0 0 427.7 409.59">
  <defs>
    <style>
      .cls-1 {
        fill: #f65625;
      }
    </style>
  </defs>
  <g id="_àð_1" data-name="˜àð_1">
    <path class="cls-1" d="M421.5,146.49c-8.55-19.31-25.5-33.75-44.26-42.75-25.08-12.03-53.29-14.52-80.72-15.7-1.07-34.33-23.5-66.14-54.5-80.45-32.42-14.98-69.85-6.95-95.95,16.66-8.02,7.24-14.77,15.81-19.82,25.27-12.05-10.03-27.36-16-43.2-17-23.2-1.47-45.55,8.84-61.08,25.84-34.5,37.78-26.46,97.76,10.77,130.69,13.72,12.14,30.54,20.45,48.35,24.13-13.69,5.29-25.21,17.03-32.41,30.09-12.62,22.86-16.33,50.67-10.03,76.01,11.84,47.58,64.62,82.24,112.37,62.86,21.63-8.78,39.2-27.22,45.37-49.77,5.61,21.49,16.19,42.16,32.82,57.1,16.74,15.05,38.5,22.23,60.9,19.58,21.02-2.48,41.37-12.81,54.76-29.38,13.37-16.55,18.1-38.14,14.91-58.99-3.37-21.97-15.42-42.5-33.8-55.01,40.73,1.01,82.14-20.27,96.58-60.06,6.87-18.95,7.17-40.53-1.06-59.12Z"/>
  </g>
</svg>