<?xml version="1.0" encoding="UTF-8"?>
<svg id="Layer_2" data-name="Layer 2" xmlns="http://www.w3.org/2000/svg" viewBox="0 0 326.43 287.8">
  <defs>
    <style>
      .cls-1 {
        fill: #faaa68;
      }
    </style>
  </defs>
  <g id="_àð_1" data-name="˜àð_1">
    <path class="cls-1" d="M318.58,27.44c-7.28-12.52-21.13-18.86-35.37-18.1-20.07,1.07-33.47,12.62-42.75,28.01-.75-3.54-1.77-7.02-3.14-10.38-7.69-18.87-24.65-29.77-45.12-26.35-22.33,3.72-42.41,19.74-55.96,37.21-3.65,4.71-6.92,9.68-9.78,14.86-5.17-16.21-14.95-30.01-32.69-37.41-15.88-6.63-32.99-2.49-46.13,8.02-15.63,12.5-23.66,31.74-30.08,50.13C2.64,116.12-3,162.31,1.52,207.33c3.33,33.11,16.56,72.23,54.13,78.32,18.78,3.04,38.58-3.24,50.98-17.94,1.84-2.18,3.5-4.49,4.97-6.89,7.15,9.3,16.48,16.87,27.68,21.55,30.02,12.56,65.18,2.6,84.2-22.43,11.02,11.78,28.27,17.84,44.96,14.07,13.8-3.13,26.27-11.87,34.04-23.69,10.07-15.33,12.35-34.45,14.95-52.18,6-41.09,9.03-82.59,9-124.11-.02-15.54.23-32.69-7.84-46.58Z"/>
  </g>
</svg>