<?xml version="1.0" encoding="UTF-8"?>
<svg id="Layer_2" data-name="Layer 2" xmlns="http://www.w3.org/2000/svg" viewBox="0 0 450.08 379.01">
  <defs>
    <style>
      .cls-1 {
        fill: #f6dcac;
      }
    </style>
  </defs>
  <g id="_àð_1" data-name="˜àð_1">
    <path class="cls-1" d="M421.53,98.92c-26.1-36.1-68.98-61.35-114.25-60.12-28.63.76-57.71,11.94-86.26,4.83-24.88-6.2-42.47-26.6-65.37-36.94-20.87-9.44-45.45-8.74-66,1.27-20.7,10.08-35.38,29.78-40.32,52.15-2.32,10.56-2.42,21.42-.28,32.02,0,.07.02.14.04.21.02.08.05.15.06.24,0,0,0,0,0,0,7.76,27.9-2.36,57.17-11.57,83.46-9.67,27.59-23.46,53.66-31.4,81.87-7.12,25.32-9.54,53.46.74,78.28,8.3,20.04,26.36,37.11,47.88,41.72,22.62,4.85,43.49-6.54,57.72-23.59,16.35-19.6,23.46-44.22,33.11-67.38,10.08-24.18,25.66-49.43,52.47-57.09,26.02-7.42,47.08,10.04,60.12,30.86,12.48,19.91,18.95,43.14,33.32,61.94,14.43,18.89,35.93,28.11,59.62,24.76,50.52-7.16,80.7-61.82,92.53-106.56,12.63-47.77,7.29-101.2-22.14-141.91Z"/>
  </g>
</svg>