<?xml version="1.0" encoding="UTF-8"?>
<svg id="Layer_2" data-name="Layer 2" xmlns="http://www.w3.org/2000/svg" viewBox="0 0 379.68 385.28">
  <defs>
    <style>
      .cls-1 {
        fill: #faaa68;
      }
    </style>
  </defs>
  <g id="_àð_1" data-name="˜àð_1">
    <path class="cls-1" d="M361.03,173.99c-3.51-2.21-7.35-3.88-11.31-4.92,2.89-5.31,5.31-10.89,7.18-16.68,5.29-16.38,5.78-36.95-7.53-49.77-11.43-11.01-29.43-12.56-43.98-7.78-1.55.51-3.06,1.08-4.53,1.73.54-6.58.76-13.16.64-19.72-.28-15.85-4.52-32.61-19.05-41.22-12.71-7.53-29.21-7.22-42.69-1.98-8.61,3.35-16.17,8.46-23.08,14.47-3.09-13.19-7.87-27.06-16.78-37.12-9.02-10.19-22.48-13.59-35.29-8.98-13.44,4.82-22.36,16.59-26.35,29.97-1.97,6.62-2.75,13.34-2.76,20.09-19.85-13.92-45-20.74-68.61-15.22-16.6,3.88-28.01,16.39-29.28,33.53-.69,9.27,1.73,17.99,6.2,25.65-.44.29-.87.59-1.3.9-10.67,7.76-16.19,20.78-16.76,33.72-.76,17.48,7.42,31.97,19.73,42.39-18.99,12.59-33.98,31.19-41.49,52.9-5.17,14.97-7.06,34.83,5.29,46.96,9.62,9.44,24.26,10.94,38.12,10.39-2.55,26.75,6.1,54.36,25.48,73.95,26.96,27.24,68.48,35.87,103.65,20.36,8.77-3.86,16.9-9.05,24.1-15.3,18.42,8.37,40.16,8.49,59.93,6.92,23.08-1.83,47.31-6.49,66.15-20.82,15.2-11.56,27.18-29.86,26.24-49.59-.5-10.5-4.82-20.78-11.77-28.53,7.05-4.41,13.65-9.52,19.44-15.52,11.39-11.79,18.91-27.11,19.06-43.7.14-14.62-6.03-29.12-18.65-37.08Z"/>
  </g>
</svg>