<?xml version="1.0" encoding="UTF-8"?>
<svg id="Layer_2" data-name="Layer 2" xmlns="http://www.w3.org/2000/svg" viewBox="0 0 409 345.91">
  <defs>
    <style>
      .cls-1 {
        fill: #f65625;
      }
    </style>
  </defs>
  <g id="_àð_1" data-name="˜àð_1">
    <path class="cls-1" d="M403.18,81.2c-15.38-43.27-59.7-71.38-105.02-78.73-45.32-7.35-91.64,2.8-135.53,16.29-31.83,9.78-63.43,21.5-91.26,39.77-27.84,18.27-51.89,43.66-63.79,74.75-11.9,31.1-10.31,68.2,8.51,95.67,14.03,20.48,36.28,34.19,59.74,42.34,23.45,8.14,48.31,11.22,72.95,14.25,9.54,20.13,19.07,40.25,28.61,60.38,5.51-24.14,7-50.47,12.51-74.61,36.89-2.34,74-7.12,108.67-19.92,34.67-12.8,67-34.19,87.89-64.68,20.9-30.49,29.11-70.67,16.73-105.5Z"/>
  </g>
</svg>