<?xml version="1.0" encoding="UTF-8"?>
<svg id="Layer_2" data-name="Layer 2" xmlns="http://www.w3.org/2000/svg" viewBox="0 0 405.78 371.05">
  <defs>
    <style>
      .cls-1 {
        fill: #faaa68;
      }
    </style>
  </defs>
  <g id="_àð_1" data-name="˜àð_1">
    <path class="cls-1" d="M403.32,273.02c-2.79-6.43-8.25-11.71-14.78-14.29-6.83-2.7-13.65-1.65-20.03,1.71-6.45,3.39-12.11,8.71-19.13,10.95-8.13,2.59-15.21-2.04-17.01-10.17-3.85-17.5,13.35-29.54,15.83-45.79,2.25-14.69-7.52-27.82-19.32-35.41-15.68-10.1-34.8-9.77-52.74-8.73-17.5,1.02-42.41,5.17-55.82-9.32-6.05-6.54-8.77-16.75-3.11-24.42,4.85-6.55,13.69-9.14,21.53-9.03,17.69.25,35.5,12,53.11,4.53,14.79-6.28,17.45-24.71,13.23-38.56-4.64-16.05-10.26-32.67-21.65-45.31-9.43-10.48-22.97-16.76-37.22-15.63-6.17.49-12.27,2.41-17.25,6.17-5.87,4.42-9.13,10.87-11.34,17.73-2.59,8.02-3.94,16.73-8.91,23.74-4.69,6.62-12.16,10.62-19.99,12.22-38.96,7.95-60-35.5-79.08-60.9-10.26-13.66-23.15-26.27-40.05-30.94-15.53-4.29-30.86.48-42.54,11.23C14.97,23.92,7.11,39.55,3.05,55.31c-4.33,16.79-4.31,34.98,1.81,51.33,10.92,29.2,42.85,49.54,73.9,41.01,17.49-4.8,38.32-18.53,56.35-7.92,18.2,10.73,15.91,35.2,7.7,51.45-16.1,31.91-50.29,48.61-71.63,76.31-10.11,13.13-17.98,28.98-17.45,45.92.48,15.08,7.9,28.93,18.9,39.01,26.99,24.74,66.32,21.81,98.05,8.69,14.15-5.85,29.54-14.33,36.01-29.05,5.01-11.39,3.33-27.26-7.32-34.95-14.49-10.49-32.94,1.16-48.86-2.25-9.55-2.04-15.46-9.56-13.88-19.44,1.47-9.24,7.13-17.67,11.73-25.63,8.85-15.29,18.85-30.71,33.39-41.2,15.07-10.86,34.48-15.11,52.74-11.67,16.91,3.19,32.08,13.13,42.14,27.04,11.49,15.87,13.26,34.37,14.4,53.36.98,16.27,2.6,33.55,12.38,47.25,9.47,13.25,24.78,17.94,40.52,15.43,16.68-2.66,33.96-11.61,46.3-23.06,11.63-10.79,19.87-28.31,13.07-43.95Z"/>
  </g>
</svg>