<?xml version="1.0" encoding="UTF-8"?>
<svg id="Layer_2" data-name="Layer 2" xmlns="http://www.w3.org/2000/svg" viewBox="0 0 404.24 345.61">
  <defs>
    <style>
      .cls-1 {
        fill: #FBA616;
      }
    </style>
  </defs>
  <g id="_àð_1" data-name="˜àð_1">
    <path class="cls-1" d="M403.1,159c-36.5-5.22-73.11-9.66-109.8-13.26-16.45-1.61-33.27-3.5-49.99-3.84-2.54-47.87-11.42-95.24-26.43-140.78-.44-1.35-2.1-1.49-2.9-.38-30.31,42.65-54.54,89.34-72.03,138.61-47.38-.12-94.69,5.45-140.81,16.56-1.59.38-1.43,2.6,0,3.06,40.68,13.15,81.36,26.31,122.03,39.46-34.07,44.07-61.47,93.07-81.17,145.27-.62,1.64,1.56,2.43,2.64,1.54,41.98-34.3,83.96-68.61,125.94-102.92,35.62,35.89,77.39,65.42,123.19,87.02,1.22.58,2.72-.37,2.34-1.79-10.74-40.12-21.49-80.24-32.22-120.34,47.79-10.79,94.52-25.96,139.59-45.32,1.21-.52.93-2.71-.37-2.9Z"/>
  </g>
</svg>