<?xml version="1.0" encoding="UTF-8"?>
<svg id="Layer_2" data-name="Layer 2" xmlns="http://www.w3.org/2000/svg" viewBox="0 0 367.13 341.2">
  <defs>
    <style>
      .cls-1 {
        fill: #028393;
      }
    </style>
  </defs>
  <g id="_àð_1" data-name="˜àð_1">
    <path class="cls-1" d="M366.15,101.15c-21.03-8.74-42.06-17.48-63.09-26.22-2.56-10.43-5.57-20.75-9.03-30.92-2.08-6.12-4.21-12.28-6.75-18.22-1.8-4.17-4.32-8.92-8.82-10.67-3.98-1.54-7.95-.14-11.14,2.45-5.27,4.28-9.21,10.56-13.41,15.83-4.35,5.45-8.69,10.89-13.04,16.34-6.58-15.79-13.17-31.56-19.75-47.34-.29-.69-1.15-1.34-1.91-.78-18.51,13.59-34.37,30.41-46.79,49.58-1.91-4.11-3.83-8.23-5.73-12.34-2.88-6.21-5.55-12.59-8.68-18.68-1.61-3.13-3.88-6.02-7.7-6.08-4.22-.06-7.74,3.49-10.32,6.38-4.61,5.17-9.06,10.51-13.57,15.77-4.51,5.23-9.01,10.46-13.51,15.69-3.26-17.6-8.52-34.79-15.68-51.3-.41-.92-1.8-.76-2.25,0-11.8,20.28-21.28,41.78-28.27,64.14-22.08-1.63-44.27.4-65.77,6.06-1.32.35-1.14,2.08,0,2.51,23.95,8.94,47.73,18.28,71.36,28.02-23.49,9.89-45.25,23.63-64.34,40.67-.92.83-.1,2.12.93,2.22,18.87,1.97,37.36,6.42,54.98,13.19-22.32,12.61-43.03,27.96-61.64,45.75-.71.68-.36,1.93.57,2.17,17.29,4.61,34.57,9.23,51.86,13.85-15.4,10.86-29.44,23.63-41.72,38.03-.66.77-.39,1.84.57,2.18,21.97,7.79,43.93,15.59,65.9,23.38-3.97,18.81-6.59,37.89-7.87,57.1-.08,1.11,1.48,1.73,2.22.92,15.83-17.51,31.66-35.03,47.49-52.55,13.45,11.38,26.92,22.77,40.39,34.15.69.58,1.54.46,2.05-.26,7.39-10.38,15.7-20.05,24.81-28.89,10.22,7.89,20.44,15.78,30.65,23.67.58.45,1.43.06,1.79-.47,8.02-11.94,16.06-23.88,24.08-35.82,18.01,15.14,36.01,30.27,54.01,45.41.81.68,1.79.36,2.18-.57,3.11-7.53,6.21-15.05,9.32-22.58,12.6-6.76,25.2-13.51,37.81-20.27.68-.36.91-1.53.26-2.05-15.21-12.28-30.42-24.56-45.63-36.85,16.83-9.36,32.35-20.91,46.19-34.37.55-.53.52-1.71-.26-2.05-10.17-4.39-19.85-9.71-28.97-15.89,14.07-7.95,27.75-16.59,40.99-25.88.77-.55.9-1.73,0-2.25-15.73-8.91-31.44-17.81-47.17-26.71,18.94-8.86,36.73-20.02,53-33.27.85-.69.23-1.84-.57-2.18Z"/>
  </g>
</svg>