<?xml version="1.0" encoding="UTF-8"?>
<svg id="Layer_2" data-name="Layer 2" xmlns="http://www.w3.org/2000/svg" viewBox="0 0 406.47 427.82">
  <defs>
    <style>
      .cls-1 {
        fill: #f6dcac;
      }
    </style>
  </defs>
  <g id="_àð_1" data-name="˜àð_1">
    <path class="cls-1" d="M405.22,196.99c-54.12,4.31-108.04,10.8-161.62,19.53,37.53-32.81,73.74-67.14,108.49-102.91,12.5-12.88,24.82-25.94,36.95-39.17.85-.94.03-2.55-1.27-2.19-42.17,11.9-82.13,31.11-117.86,56.38,11.39-19.77,21.04-40.55,28.81-62.04,5.11-14.17,9.36-28.63,12.8-43.3.3-1.28-1.22-2.15-2.19-1.27-37.47,34.28-71.3,72.47-100.75,113.84,5.88-38,8.16-76.54,6.68-114.98-.24-6.21.16-16.51-6.48-19.96-7.34-3.83-12.18,5.15-14.89,10.36-10.48,20.11-18.97,41.27-25.33,63.04-4.61,15.73-8.06,31.77-10.39,47.97-19.4-36.58-44.33-70.12-73.93-99.23-.9-.88-2.59,0-2.18,1.27,14.02,43.36,28.03,86.72,42.05,130.08-35.35-21.41-70.69-42.81-106.05-64.22-1.04-.64-2.6.71-1.78,1.78,31.73,41.61,67.07,80.41,105.65,115.77.57.52,1.13,1.04,1.71,1.55-41.54,5.34-82.61,14.12-122.72,26.28-1.26.38-1.21,2.11,0,2.52,39.59,13.29,80.12,23.52,121.23,30.65-23.57,17.83-45.14,38.28-64.17,60.94-8.97,10.67-17.35,21.83-25.15,33.38-.71,1.04.73,2.57,1.78,1.78,37.34-27.65,78.39-50.03,121.83-66.41.3,42.79,2.63,85.55,6.95,128.12.15,1.46,2.05,1.78,2.57.35,12.65-34.63,25.3-69.28,37.95-103.91,39.02,32.34,84.86,56.13,133.9,69.3,1.11.3,2.04-.92,1.48-1.92-20.91-37.44-41.83-74.87-62.75-112.29,30.12-15.67,59.53-32.67,88.13-50.98,13.94-8.92,27.67-18.16,41.2-27.68.97-.67.76-2.54-.65-2.43Z"/>
  </g>
</svg>