<?xml version="1.0" encoding="UTF-8"?>
<svg id="Layer_2" data-name="Layer 2" xmlns="http://www.w3.org/2000/svg" viewBox="0 0 322.84 425.63">
  <defs>
    <style>
      .cls-1 {
        fill: #faaa68;
      }
    </style>
  </defs>
  <g id="_àð_1" data-name="˜àð_1">
    <path class="cls-1" d="M322.78,79.22c-.81-18.51-10.93-35.74-25.48-46.89-17.24-13.21-39.73-16.52-59.8-7.98-14.11,6-25.98,16.91-32.93,30.43,2.16-20.65-.31-43.18-21.67-51.91-21.61-8.84-45.19,3.93-56.97,22.22-6.59,10.22-10.39,21.91-12.86,33.77-2.97-13.44-8.9-26.43-18.83-36.1-11.21-10.91-26.57-15.56-42-13.53C17.63,13.79-2.53,47.07.25,80.26c2.98,35.41,28.92,61.28,58.17,78.18,14.48,8.37,30,15.86,42.18,27.57,14.86,14.3,18.99,33.04,17.43,53.12-.99,12.67-3.37,25.24-5.33,37.79-2,12.81-4,25.61-5.99,38.42-4.05,25.94-8.1,51.88-12.15,77.83-.01.09-.02.18-.02.27h0c-.02.05-.02.09-.03.13-1.08,8.04-.07,16.1,5.78,22.15,5.76,5.95,14.72,9.58,22.92,9.88,21.17.79,36.83-15.92,44.03-34.28,9.22-23.5,7.89-49.98,13.2-74.45,5-23.05,13.08-45.42,23.92-66.38,10.71-20.71,24.08-40.05,39.79-57.29,17.21-18.87,37.99-34.25,54.41-53.87,14-16.72,25.19-37.71,24.22-60.11Z"/>
  </g>
</svg>