<?xml version="1.0" encoding="UTF-8"?>
<svg id="Layer_2" data-name="Layer 2" xmlns="http://www.w3.org/2000/svg" viewBox="0 0 380.5 286.44">
  <defs>
    <style>
      .cls-1 {
        fill: #f65625;
      }
    </style>
  </defs>
  <g id="_àð_1" data-name="˜àð_1">
    <path class="cls-1" d="M378.69,83.79c-1.62-12.85-3.69-26.24-8.32-38.39-7.4-19.45-27.09-35.38-47.72-23.22-10.85,6.4-19,17.33-26.31,27.34-8.19,11.22-15.24,23.27-21.04,35.89-4.21,9.16-7.76,18.59-10.63,28.21,1.23-11.24,2.46-22.47,3.7-33.71,1.52-13.86,3.05-27.72,4.57-41.58,1.07-9.73,2.91-21.08-2.92-29.76-4.66-6.92-13.23-9.38-21.2-8.35-9.54,1.24-17.1,7.23-22.69,14.8-6.75,9.12-11.13,20.06-15.47,30.47-4.94,11.86-9.27,23.98-12.95,36.29-6.56,21.91-11.03,44.39-13.46,67.11-1.88-23.02-3.76-46.04-5.64-69.07-1.14-14.02-2.13-28.07-3.45-42.07-.99-10.39-2.92-21.24-10.21-29.21-6.82-7.45-16.86-9.53-26.3-6.13-10.25,3.7-17.32,12.41-23.14,21.23-13.16,19.96-22.47,42.48-27.61,65.81-3.7,16.76-5.22,33.91-4.55,51-4.94-22.63-9.9-45.27-14.85-67.9-2.9-13.3-4.72-28.23-12.53-39.76-5.8-8.56-15.9-15.29-26.61-13.61C7.58,22.6,3.59,52.07,1.55,69.48-1.57,96.08.07,123.21,6.04,149.31c6.72,29.4,19.04,57.38,36.29,82.11.04.06.08.11.13.16.03.05.06.1.1.15,13.58,16.92,29.75,31.92,49.35,41.58,19.13,9.44,40.35,13.14,61.57,13.13,27.57-.01,54.78-6.11,80.99-14.27,24.72-7.7,50.03-16.18,72.92-28.43,21.24-11.37,38.98-27.36,51.41-48.09,12.64-21.09,19.37-45.22,21.18-69.64,1.04-14.07.48-28.23-1.29-42.22Z"/>
  </g>
</svg>