<?xml version="1.0" encoding="UTF-8"?>
<svg id="Layer_2" data-name="Layer 2" xmlns="http://www.w3.org/2000/svg" viewBox="0 0 221.44 223.49">
  <defs>
    <style>
      .cls-1 {
        fill: #e0edf2;
      }

      .cls-2 {
        fill: #222;
      }

      .cls-3 {
        fill: #fff7d8;
      }
    </style>
  </defs>
  <g id="Layer_1-2" data-name="Layer 1">
    <g>
      <path class="cls-2" d="M185.8,6.18c5.95,8.3.09,49.92,2.52,62l28.32,23.68c2.35,2.46,2.95,6.44,3.33,9.67,2.58,21.73,1.2,61.17.17,83.9-.93,20.55.16,34.3-24.51,36.49-56.09-3.82-118.74,4.97-174.06,0-12.71-1.14-19.08-6.55-20.45-19.55-3.42-32.35,2.32-70.76.23-103.74.71-3.98,2.46-6.09,5.28-8.72,5.51-5.14,34.16-21.58,35.95-26.05,2.23-15.85-1.18-33.84.54-49.46.71-6.46,3.45-12.61,10.46-13.54,37.51,2.1,77.91-2.72,115.07-.03,4.95.36,14.13,1.12,17.15,5.34ZM175.6,11.89H56.6l-2.29,1.23-1.75,112.73,24.05,17.76c12.21-10.4,20.8-17.58,38.02-15.75,12.96,1.38,21.23,12.32,31.99,18.02,5.53-4.62,30.43-22.07,31.4-27.54l-.93-103.93-1.49-2.51ZM43.1,78.89l-8.31,4.19-19.7,15.3,28.01,18.51v-38ZM188.1,83.89v27c2.6-2.59,17.3-11.58,16.92-14.35l-16.92-12.65ZM11.1,107.89v94l56.02-51.48L11.1,107.89ZM209.1,198.89v-90l-54.02,43.52c-.16,4.13,19.24,17.68,23.03,20.98,10.09,8.77,18.96,18.97,30.99,25.51ZM20.1,210.89h183l-.69-3.04c-20.35-16.17-39.32-33.93-59.8-49.97-6.34-4.96-17.23-15.2-24.84-18.16-16.4-6.38-27.52,5.67-39.14,15.2-17.03,13.97-36.18,32.44-52.04,47.93-2.24,2.19-5.83,4.89-6.49,8.04Z"/>
      <path class="cls-3" d="M175.6,11.89l1.49,2.51.93,103.93c-.97,5.47-25.87,22.92-31.4,27.54-10.76-5.7-19.03-16.64-31.99-18.02-17.22-1.83-25.81,5.35-38.02,15.75l-24.05-17.76,1.75-112.73,2.29-1.23h119ZM91.77,37.05c-5.27,1.91-7.72,27.74,3.77,24.85l2.62-1.45c3.37-5.25,4.35-27.29-6.39-23.4ZM129.33,60.66c17.01,9.45,12.31-32.34,1.26-21.8-4.64,4.43-3.84,16.24-1.26,21.8ZM89.85,79.08c-11.46,2.38,2.6,19.37,7.91,22.65,12.15,7.49,31.69,3.95,40.33-7.34,3.61-4.72,7.64-16.46-2.25-14.32-4.25.92-4.97,6.43-7.75,9.31-7.98,8.27-23.24,7.19-29.82-2.15-2.7-3.83-1.56-9.57-8.41-8.15Z"/>
      <path class="cls-1" d="M20.1,210.89c.66-3.15,4.25-5.86,6.49-8.04,15.87-15.49,35.01-33.96,52.04-47.93,11.62-9.53,22.74-21.59,39.14-15.2,7.61,2.96,18.5,13.2,24.84,18.16,20.48,16.04,39.45,33.8,59.8,49.97l.69,3.04H20.1Z"/>
      <polygon class="cls-1" points="11.1 107.89 67.12 150.41 11.1 201.89 11.1 107.89"/>
      <path class="cls-1" d="M209.1,198.89c-12.03-6.54-20.91-16.74-30.99-25.51-3.78-3.29-23.18-16.84-23.03-20.98l54.02-43.52v90Z"/>
      <polygon class="cls-1" points="43.1 78.89 43.1 116.89 15.09 98.38 34.79 83.08 43.1 78.89"/>
      <path class="cls-1" d="M188.1,83.89l16.92,12.65c.39,2.77-14.32,11.76-16.92,14.35v-27Z"/>
      <path class="cls-2" d="M89.85,79.08c6.86-1.42,5.71,4.31,8.41,8.15,6.59,9.34,21.84,10.41,29.82,2.15,2.78-2.88,3.5-8.39,7.75-9.31,9.89-2.14,5.86,9.59,2.25,14.32-8.64,11.3-28.18,14.83-40.33,7.34-5.32-3.28-19.37-20.27-7.91-22.65Z"/>
      <path class="cls-2" d="M91.77,37.05c10.73-3.9,9.76,18.15,6.39,23.4l-2.62,1.45c-11.49,2.89-9.04-22.94-3.77-24.85Z"/>
      <path class="cls-2" d="M129.33,60.66c-2.58-5.56-3.38-17.37,1.26-21.8,11.05-10.54,15.75,31.25-1.26,21.8Z"/>
    </g>
  </g>
</svg>