<?xml version="1.0" encoding="UTF-8"?>
<svg id="Layer_1" data-name="Layer 1" xmlns="http://www.w3.org/2000/svg" viewBox="0 0 311.11 296">
  <defs>
    <style>
      .cls-1 {
        fill: #f8f8f7;
      }

      .cls-2 {
        fill: #e8f7ed;
      }

      .cls-3 {
        fill: #383838;
      }
    </style>
  </defs>
  <path class="cls-2" d="M154.03,219.23c-.58-.19-1.03-1.63-1.59-1.92-2.97-1.53-8,.31-11.34.39-20.57.44-42.44.39-62.63-3.43-28.99-5.48-45.74-17.7-47.76-48.86-.14-2.22-.4-10.8.36-12.19.68-1.24.99-.38,1.72-.12,8.96,3.25,17.64,10.28,27.25,2.38,16.06-13.21,3.53-46.15,17.05-67.62,10.98-17.43,23.3-18.4,42.02-19.43,29.99-1.65,64.99-2.17,95.05-.85,9.85.43,21.82.89,29.8,7.12,21.12,16.49,14.75,46.06,13.78,69.51-.17,4.22-1.21,9.7,4.7,9.03-3.07,3.71-1.31,16.25-3.14,21.21-.31-2.44-6.44-18.21-7.81-20.08-.63-.86-6.07-6.85-7.1-7.83-9.6-9.08-22.82-12.23-35.79-11.41-40.04,2.52-55.37,54.06-27.85,80.95-2.97,1.54-7.28,1.99-10.61,2.35-2.67.29-14.44,1.32-16.1.79ZM108.23,105.57c-.39-.51-3.53-2.28-4.25-2.45-13.53-3.1-15.63,26.09-1.58,23.26.88-.18,4.82-2.09,5.34-2.75,2.86-3.65,3.29-14.46.5-18.06ZM140.48,105.47c-9.56,1.84-9.59,22.93,1.39,21.92,9.44-.87,9.76-24.06-1.39-21.92ZM146.96,167.38c.98-2.69,3.67-5.35-.55-7.7-11.91.47-24.08.19-35.84,1.35-4.53,11.48,10.14,7.21,16.33,7.1,3.02-.05,6.05.08,9.07.03,3.42,1.65,8.31.87,11.79-.04-.09-.36-.81-.69-.79-.75Z"/>
  <path class="cls-3" d="M153.99,218.86c.35,10.46-13.31,4.35-19.9,7.07-40.46-.74-100.87,1.02-110.29-50.02-1.13-6.11-2.37-21.46-.14-26.8,4.38-10.49,15-3.97,22.27-.82,1.08.47.57,1.63,2.1,1.84,5.12.69,11.33-3.71,12.09-9.11,2.86-20.37-2.26-38.55,10.5-57.11,7.76-11.29,19.8-20.16,33.93-22.74,38.35.23,80.51-3.63,118.65-1.01,28.11,1.93,40.64,19.05,43.34,45.77.64,6.28.37,43.07-2.55,46.31-.48.53-1.85.64-2.13.97-5.88.67-4.85-4.78-4.68-8.98.96-23.33,7.31-52.76-13.71-69.17-7.94-6.2-19.85-6.65-29.65-7.09-29.92-1.32-64.75-.79-94.58.85-18.63,1.02-30.88,1.99-41.81,19.33-13.45,21.36-.99,54.14-16.97,67.28-9.56,7.86-18.2.86-27.12-2.37-.72-.26-1.03-1.12-1.71.12-.76,1.38-.5,9.92-.36,12.13,2.02,31,18.69,43.17,47.53,48.62,20.09,3.8,41.86,3.85,62.33,3.41,3.32-.07,8.33-1.9,11.28-.38.55.28,1,1.73,1.58,1.91Z"/>
  <path class="cls-3" d="M258.74,174.3c1.81,14.25-2.22,26.68-10.89,37.8l27.2,26.78c2.64,4.72-.07,9.87-5.58,9.55-10.92-8.33-19.69-19.53-30-28.72-16.18,11.01-37.59,10.86-53.69-.22-1.04-.71-4.62-3.19-5.22-3.77-27.38-26.76-12.13-78.04,27.71-80.55,12.91-.81,26.06,2.32,35.62,11.36,1.03.97,6.43,6.93,7.06,7.79,1.37,1.85,7.46,17.55,7.77,19.98ZM232.44,149.78c-9.94-7.19-18.69-8.52-30.94-4.96-1.08.31-8.16,3.01-8.47,3.33-.81.84-.5,2.07-.86,2.56-.09.12-1.22-.47-1.83.08-38.6,34.46,3.86,86.03,42.36,62.75,25.05-15.14,22.32-47.42-.27-63.76Z"/>
  <path class="cls-3" d="M108.41,105.75c2.78,3.58,2.35,14.34-.5,17.97-.51.65-4.44,2.56-5.31,2.74-13.97,2.83-11.89-26.22,1.58-23.14.72.16,3.84,1.93,4.23,2.44Z"/>
  <path class="cls-3" d="M146.96,167.26c-3.28,1.39-7.35.73-10.94.78-3,.04-6.02-.09-9.02-.03-6.16.11-20.76,4.35-16.25-7.07,11.71-1.15,23.82-.88,35.67-1.34,4.2,2.33,1.52,4.98.55,7.66Z"/>
  <path class="cls-3" d="M140.51,105.66c11.09-2.14,10.77,20.94,1.38,21.81-10.93,1.01-10.89-19.97-1.38-21.81Z"/>
  <path class="cls-1" d="M146.96,167.26c-.02.05.7.39.79.74-3.46.91-8.33,1.68-11.73.04,3.59-.05,7.66.6,10.94-.78Z"/>
</svg>