<?xml version="1.0" encoding="UTF-8"?>
<svg id="Layer_1" data-name="Layer 1" xmlns="http://www.w3.org/2000/svg" viewBox="0 0 311.11 296">
  <defs>
    <style>
      .cls-1 {
        fill: #383838;
      }

      .cls-3 {
        fill: #f79f93;
      }

      .cls-4 {
        fill: #383838;
      }
    </style>
  </defs>
  <path class="cls-3" d="M252.96,20.45c6.51,7.33,6.78,22.26-.14,29.45-20.15,20.92-51.81.22-35.21-28.09,7.19-12.27,26.79-10.99,35.35-1.36Z"/>
  <path class="cls-1" d="M199.92,98.02c3.65,7.44,17.75,4.12,25.48,4.58,3.17.19,7.01,1.47,10.19,1.67,13.58.88,48.52.35,58.8,7.31,5.46,3.7,6.22,8.43,4.77,14.74-2.41,10.51-30.84,33.84-40.09,41.48-4.81,3.97-22.44,15.36-23.71,20.18-.94,3.58.85,4.1,1.42,6.65,5.37,24.08,11.47,50.49,14.42,74.57,1.55,12.65-6.26,23.03-19.65,20.5-8.76-1.65-29.66-19.65-37.47-26.1-13.1-10.83-25.39-22.66-38.16-33.88-2.57-1.83-5.3-2.06-7.97-.33-17.25,11.4-33.73,24.06-51.02,35.43-8.86,5.83-32.39,22.17-41.86,22.59-12.69.56-17.19-10.39-15.5-21.47,3.1-20.22,20.8-52.81,28.63-73.08,2.63-6.8,4.5-7.78-1.31-13.12-12.58-11.57-46.92-28.8-53.4-42.37-7.58-15.86,6.11-20.64,18.91-23.53,23.27-5.25,47.38-5.5,70.89-8.78,5.18-.72,7.86-6.38,10.65-10.54,8.18-12.2,15.13-25.5,23.22-37.8,5.51-8.37,13.7-23.4,22.63-27.37,5.14-2.29,9.75-2.09,14.83.3,10.73,5.06,13.63,30.94,16.71,41.77,2.2,7.74,5.18,19.67,8.59,26.61ZM294.19,114.76c-1.4-1.25-8.49-4.12-10.34-4.49-21-4.21-47.13-2.77-68.6-4.29-8.58-.61-15.11-.75-18.83-9.14-6.99-15.76-8.75-34.12-13.9-50.51-2.83-9.01-6.3-16.74-17.33-15.84-3.66.3-9.94,4.56-12.26,7.25-13.71,15.95-25.08,41.39-37.33,59.11-1.88,2.72-6.15,8.94-8.78,10.05-8.74,1.29-17.58,2.24-26.35,3.32-16.93,2.07-39.78,3.27-55.83,8.58-8.25,2.73-11.79,5.92-9.67,15.4,2.32,10.4,44.06,35.17,54.07,44.24,1.86,1.69,3,3.86,5.13,5.21-.99,2.71-1.55,5.71-2.56,8.39-8.48,22.44-23.3,48.32-28.61,71.4-2.04,8.85-1.22,20.98,10.44,21.3,7.48.2,22.72-9.45,29.43-13.63,20.68-12.88,40.57-29.94,61.15-42.25,3.75-2.25,6.76-4.77,11.45-2.92,2.71,3.57,6.73,5.57,9.89,8.33,10.42,9.1,20.41,19.57,31.25,28.5,7.39,6.09,28.27,23.38,36.67,24.4,14.31,1.75,15.46-9.35,14.58-20.56-1.88-23.98-10.15-48.62-14.3-72.15-2.28-12.97,5.51-14.01,13.86-20.7,10.89-8.73,21.98-17.65,31.98-27.16,6.61-6.29,24.93-22.77,14.79-31.84Z"/>
  <path class="cls-1" d="M100.95,12.19c11.93,10.71,12.08,32.31-.63,42.44-24.2,19.29-55.33-8.4-40.37-35.28,7.9-14.2,28.85-18.06,41-7.16ZM66.95,14.9c-20.11,17.4-.27,53.66,26.85,40.84,14.64-6.92,17.12-26.42,7.89-38.79-8.04-10.77-25.01-10.48-34.74-2.05Z"/>
  <path class="cls-1" d="M256.05,16.43c12.83,13.4,7.32,38.47-10.73,45.05-21.68,7.9-39.13-8.11-36.47-30.53,2.64-22.26,32.13-30.24,47.2-14.52ZM215.29,50.41c10.06,15.5,35.4,12.45,42.8-4.12,4.81-10.77,1.61-25.64-8.93-31.86-24.01-14.16-48.22,13.88-33.87,35.98Z"/>
  <path class="cls-4" d="M294.19,114.76c10.14,9.07-8.18,25.55-14.79,31.84-10,9.52-21.09,18.43-31.98,27.16-8.35,6.7-16.15,7.74-13.86,20.7,4.14,23.52,12.42,48.17,14.3,72.15.88,11.2-.27,22.31-14.58,20.56-8.39-1.03-29.28-18.31-36.67-24.4-10.84-8.93-20.83-19.4-31.25-28.5-3.16-2.76-7.18-4.76-9.89-8.33-4.69-1.85-7.7.68-11.45,2.92-20.58,12.31-40.48,29.37-61.15,42.25-6.71,4.18-21.95,13.84-29.43,13.63-11.66-.32-12.48-12.45-10.44-21.3,5.31-23.09,20.12-48.97,28.61-71.4,1.01-2.68,1.58-5.68,2.56-8.39-2.13-1.34-3.27-3.52-5.13-5.21-10.01-9.07-51.75-33.84-54.07-44.24-2.12-9.48,1.42-12.68,9.67-15.4,16.06-5.31,38.9-6.51,55.83-8.58,8.77-1.07,17.61-2.03,26.35-3.32,2.63-1.11,6.9-7.33,8.78-10.05,12.25-17.72,23.62-43.16,37.33-59.11,2.31-2.69,8.59-6.95,12.26-7.25,11.03-.9,14.5,6.83,17.33,15.84,5.15,16.39,6.92,34.75,13.9,50.51,3.72,8.39,10.25,8.53,18.83,9.14,21.46,1.52,47.6.08,68.6,4.29,1.86.37,8.95,3.24,10.34,4.49ZM287.7,121.24c.13-1.13,1.74-1.91-1.5-3.17-2.09-.81-12.28-2.36-15.12-2.67-22.35-2.43-47.72-.61-69.36-4.38-8.06-1.4-12.24-12.52-14.6-19.3-4.42-12.71-6.25-26.5-9.88-39.28-1.89-6.66-5.24-19.78-14.19-13.88-2.11,1.39-9.88,11.01-11.79,13.65-11.43,15.81-19.96,35.37-31.4,50.81-1.97,2.65-5.48,7.07-8.33,8.62-7.11,3.87-16.05,2.77-23.43,3.7-19.38,2.43-41.28,4.95-59.59,9.91-2.37.64-7.68.93-7.79,4.89-.07,2.48,6.18,8.01,8.27,9.74,14.1,11.64,32.76,21.47,45.97,33.5,4.33,3.95,7.02,7.93,5.68,14.18-1.45,6.8-8.49,18.83-11.35,25.94-5.75,14.28-16.53,37.6-19.56,51.63-2.85,13.2,2.25,14.59,12.95,9.56,10.14-4.76,22.85-13.81,32.38-20.17,14.75-9.85,32.22-25.23,47.44-33.08,10.1-5.21,14.13-3.27,22.47,3.23,17.98,14.01,34.38,32.51,53.29,46.12,3.85,2.77,14,9.74,18.18,9.66,4.02-.08,5.24-2.44,5.32-6.2.21-9.71-3.1-21.16-4.87-30.56-1.98-10.46-4.02-21.43-6.19-31.95-1.69-8.16-6.66-19.24-3.97-27.29,2.68-8.03,29.98-26.95,37.8-33.82,4.95-4.35,22.09-20.08,24.42-25.16.74-1.61,1.2-2.88-1.24-2.51.13-.4-.06-1.15,0-1.7Z"/>
  <path class="cls-4" d="M66.95,14.9c9.73-8.42,26.7-8.71,34.74,2.05,9.23,12.37,6.76,31.87-7.89,38.79-27.13,12.81-46.96-23.44-26.85-40.84ZM96.65,44.6c1.44-1.85,4.68-9.06,4.68-11.09,0-.69-2.92-9.3-3.48-10.18-7.06-11.07-26.55-9.99-30.9,3.02-6.76,20.25,17.62,33.79,29.69,18.25Z"/>
  <path class="cls-4" d="M215.29,50.41c-14.34-22.11,9.86-50.14,33.87-35.98,10.54,6.22,13.74,21.09,8.93,31.86-7.4,16.57-32.75,19.62-42.8,4.12ZM243.36,18.98c-9.49-3.73-18.91-.76-23.49,8.58-.74,1.52-2.4,5.28-2.57,6.78-.38,3.35,2.33,11.64,4.64,14.07,6.06,6.36,15.88,6.8,23.08,2.17,10.62-6.83,11.69-19.09,2.89-28.12-.4-.42-4.29-3.37-4.55-3.48Z"/>
  <path class="cls-1" d="M287.7,121.24c-1.69-.31-3.05-1.21-4.76-1.6-23.02-5.32-52.33-2.65-76.1-5.27-17.31-1.91-19.62-15.11-23.99-29.4-2.19-7.14-9.74-42.48-13.32-45.16-5.19-3.87-11.6,8.93-14.04,12.12-12.11,15.83-20.63,33.37-32.02,49.58-5.7,8.12-9.45,13.77-20.18,15.42-19.8,3.03-40.05,3.54-59.88,7.08-2.73.49-19.97,3.89-20.21,5.37.42,4.08,5.04,7.18,8.14,9.64,13.43,10.71,29.41,19.33,42.37,30.52,6.85,5.91,11.19,10.01,8.62,19.66-2.59,9.7-9.96,22.91-13.85,32.77-4.77,12.08-10.87,25.7-14.64,37.91-6.83,22.1,2.08,16.42,15.98,8.35,6.08-3.53,12.71-7.97,18.64-11.87,16.3-10.7,38.14-29.95,54.59-37.8,8.21-3.92,13.64-3.07,20.85,2.35,21.32,16.03,41.93,41.64,65.6,54.76,8.77,4.86,10.71,3.31,9.8-6.42-2.13-22.85-9.81-46.42-14.21-68.85-2.46-12.57-3.14-17.14,6.68-26.19,14.12-13.01,30.45-24.31,44.52-37.67,3.6-3.41,9.95-9.05,11.43-13.6,2.44-.37,1.98.9,1.24,2.51-2.34,5.08-19.47,20.81-24.42,25.16-7.82,6.87-35.12,25.79-37.8,33.82-2.69,8.06,2.29,19.13,3.97,27.29,2.17,10.52,4.21,21.48,6.19,31.95,1.78,9.39,5.08,20.85,4.87,30.56-.08,3.76-1.3,6.12-5.32,6.2-4.18.08-14.32-6.88-18.18-9.66-18.91-13.61-35.3-32.1-53.29-46.12-8.34-6.5-12.37-8.44-22.47-3.23-15.22,7.86-32.69,23.23-47.44,33.08-9.53,6.36-22.24,15.4-32.38,20.17-10.69,5.03-15.79,3.64-12.95-9.56,3.03-14.03,13.81-37.35,19.56-51.63,2.86-7.11,9.9-19.14,11.35-25.94,1.33-6.25-1.35-10.23-5.68-14.18-13.21-12.04-31.87-21.87-45.97-33.5-2.09-1.72-8.34-7.26-8.27-9.74.11-3.96,5.42-4.24,7.79-4.89,18.31-4.96,40.21-7.48,59.59-9.91,7.37-.93,16.32.17,23.43-3.7,2.85-1.55,6.36-5.97,8.33-8.62,11.45-15.43,19.97-35,31.4-50.81,1.91-2.63,9.67-12.25,11.79-13.65,8.95-5.9,12.3,7.23,14.19,13.88,3.63,12.78,5.46,26.57,9.88,39.28,2.36,6.78,6.54,17.9,14.6,19.3,21.64,3.76,47.01,1.95,69.36,4.38,2.84.31,13.03,1.86,15.12,2.67,3.24,1.26,1.63,2.04,1.5,3.17Z"/>
  <path class="cls-1" d="M96.65,44.6c-12.07,15.54-36.45,2.01-29.69-18.25,4.34-13.01,23.84-14.09,30.9-3.02.56.88,3.48,9.48,3.48,10.18,0,2.03-3.24,9.23-4.68,11.09ZM72.73,44.65c16.95,16.95,37.45-14.86,17.24-25.29-16.03-8.27-29.45,13.08-17.24,25.29Z"/>
  <path class="cls-1" d="M243.36,18.98c.27.1,4.15,3.06,4.55,3.48,8.8,9.03,7.74,21.3-2.89,28.12-7.2,4.63-17.02,4.19-23.08-2.17-2.32-2.43-5.02-10.72-4.64-14.07.17-1.5,1.83-5.26,2.57-6.78,4.58-9.34,13.99-12.31,23.49-8.58ZM229.85,20.59c-10.41,2.65-13.32,23.4-2.92,28.78,8.08,4.18,22.57.08,23.51-9.87,1.26-13.31-6.9-22.39-20.6-18.91Z"/>
  <path class="cls-3" d="M291.33,120.14c.26,1.24.07,2.34-.45,3.5-2.37,5.24-26.92,26.03-33.05,31.3-6.97,5.99-28.46,20.11-31.3,27.69-.29.78-2.27,8.85-2.22,9.33.16,1.46,1.42,2.67,1.6,3.87,3.23,21.58,10.26,43.05,13.57,64.19,1.07,6.87,1.2,14.86,1.83,21.86-.51.51-6.84-1.59-7.74-2.1-24.18-13.67-45.58-40.72-67.8-56.87-9.33-6.78-16.49-7.72-26.81-1.82-17.68,10.11-34.95,25.21-52.07,36.61-5.97,3.97-32.38,21.42-37.51,21.34-.88-.01-1.84-.49-1.98-1.23-.11-.57,2.45-9.79,2.92-11.29,2.25-7.16,5.9-15.44,8.65-22.64,6.02-15.77,17.4-36.52,21.4-51.89,2.78-10.71.25-14.91-7.55-21.81-14.3-12.65-32.64-22.36-47.35-33.99-1.01-.8-7.68-7.1-6.7-8.04,2.72-.32,5.56-.59,8.25-1.14,15.35-3.12,31.07-5.67,46.82-7.7,24.42-3.15,34.59,2.07,50.37-20.24,13.3-18.81,23.28-42.55,38.48-59.84,2.31-2.63,5.49-6.68,7.79-1.57,2.87,6.35,3.83,16.09,5.69,22.91.85,3.13,2.51,6.88,3.39,10.01,4.49,15.91,6.65,39.34,26.68,43.03,28.37,2.2,56.83,2.58,85.1,6.52Z"/>
  <path class="cls-2" d="M72.73,44.65c-12.21-12.21,1.2-33.56,17.24-25.29,20.22,10.43-.28,42.24-17.24,25.29ZM78.14,20.59c-5.54,1.41-7.68,8.68-7.47,13.79.71,16.94,25.73,15.95,25.5-.82-.14-9.99-8.51-15.4-18.03-12.97Z"/>
  <path class="cls-3" d="M76.42,16.45c12.62-3.22,23.71,3.95,23.89,17.19.3,22.21-32.85,23.52-33.79,1.08-.28-6.77,2.56-16.4,9.89-18.27Z"/>
</svg>