<?xml version="1.0" encoding="UTF-8"?>
<svg id="Layer_2" data-name="Layer 2" xmlns="http://www.w3.org/2000/svg" viewBox="0 0 339.56 240.51">
  <defs>
    <style>
      .cls-1 {
        fill: #c1e6ed;
      }

      .cls-2 {
        fill: #1f374a;
      }

      .cls-3 {
        fill: #212121;
      }
    </style>
  </defs>
  <g id="Layer_1-2" data-name="Layer 1">
    <g>
      <path class="cls-2" d="M196.85,238.72c-18.96-1.8-39.23.1-58.47.81-13.44.59-26.55-1.4-39.91-1.46-28.88-.35-61.56-5.18-82.73-26.72C-1.25,192.72-2.5,165.15,2.72,141.66c5.57-27.69,27.2-49.68,53.99-57.57,5.04-1.41,10.8-2.22,16.21-2.2,4.86-.03,9.89.64,14.64-.44,8-1.69,11.25-9.24,14.02-16.53,2.28-5.77,4.73-11.29,8.13-16.61,8.3-13.39,19.51-24.75,32.55-33.45,7.33-4.95,15.1-9.36,23.62-11.82,23.22-6.43,50.67-2.47,70.81,9.82,11.84,7.43,21.39,18.74,28.22,30.88,4.89,8.64,7.38,18.32,8.06,28.03.74,6.3-.1,14.86,2.5,19.35,2.48,4.76,8.16,5.75,13.34,6.66,4.25.72,8.99,1.79,12.99,3.61,10.83,4.86,19.26,13.52,25.84,23.14,19.32,27.61,14.72,71.15-10.57,93.39-35.33,29.12-88.53,21.68-131.92,21.82-.84-.08-.22-.15.17-.19,2.23-.26,9.94-.38,11.53-.85h.01ZM263.37,72.85c-6.97-32.14-29.45-56.99-63.28-60.51-42.77-5.32-81.27,26.55-91.51,67.48-2.77,9.82-5.74,17.59-17.02,16.47-2.42-.16-5.04-.59-7.7-1.01-31.04-6.06-59.94,16.07-69.01,45.89-5.74,18.89-5.27,43.57,7.62,59.39,12.49,16.31,38.18,21.28,60.76,24.36,9.44,1.62,18.26,3.03,27.48,2.98,11.38-.33,22.18-.14,33.24.46,40.96.8,93.56,5.87,132.36-2.27,8.36-2.27,16.5-6.24,23.98-10.78,13.3-7.57,22.39-19.22,25.38-34.69,4.17-20.33-.38-43.87-15.55-58.89-6.58-6.56-14.05-11.19-22.93-12.59-5.9-1.22-12.89-1.09-17.65-5.11-4.62-4.46-3.7-11.02-4.31-17.94-.27-4.39-.84-8.77-1.82-13.06l-.04-.18ZM97.17,81.04c-.13.1-.12,1.29.29.86.28-.28,0-.87-.21-.91l-.08.04Z"/>
      <path class="cls-1" d="M265.25,72.68c.39,3.44.57,6.91.65,10.37.45,10.11-1.1,20.39,7.83,24.35,5.65,2.51,14.47,1.85,21.8,3.68,9.86,2.17,17.94,9.11,23.7,17.27,14.3,20.13,15.62,50.51,3.12,71.44-20.23,30.7-63.14,30.05-95.93,29.92-45.38-.45-90.74.83-136.08-2.37-29.66-2.46-67.39-8.8-76.41-42.14-12.15-42.18,17.88-94.57,63.84-91.5,18.35,1.94,26.32,7.02,32-15.16C122.01,28.12,175.63-5.91,224.33,15.64c22.19,9.93,38.44,32.5,40.9,56.84l.02.2ZM182.82,195.22c5.09.16,10.17.36,15.26.57,9.56.29,19.48,1.19,26.18-5.94,10.37-12.53,6.29-38.17-.68-52.13-6.62-14.01-19.01-24.56-34.17-27.44-36.71-7.77-68.98,25.91-76.62,60.83-3.66,18.24,1.42,22.48,20.28,22.89,16.46.73,33.16.78,49.55,1.22h.2Z"/>
      <path class="cls-3" d="M97.25,80.99c.93.62-.43,1.88-.08.04l.08-.04Z"/>
      <g>
        <path class="cls-2" d="M180.6,193.45c-16.22.64-32.66-.02-48.95-.58-7.32-.38-14.15-.79-17.68-3.99-6.16-6.08-2.72-17.6-.61-25.24,9.82-32,40.39-61.05,74.59-53.35,15.32,3.1,27.47,14.1,33.8,28.28,6.37,13.66,10.01,37.64.27,49.91-4.64,5.73-12.51,5.92-19.53,5.15-6.74-.64-14.49-.52-21.69-.18h-.2ZM209.12,139.58c-12.15-18.19-32.7-22.32-52.29-13.88-11.68,5.33-19.06,16.27-24.55,27.13-2.39,5.03-12.74,21.83-7.99,25.91,1.66,1.47,4.72,1.87,7.27,1.96,16.04.45,53.63,1.38,70.17,1.79,2.44.04,5.1-.01,7.22-.67,5.9-1.92,6.53-8.16,7.09-14.41.48-9.62-1.54-19.62-6.82-27.68l-.11-.16Z"/>
        <path class="cls-3" d="M180.93,192.75c1.05-1.12,25.19-1.87,24.85.32-1.67.7-3.85.63-5.75.78-4.29.22-10.59-.05-14.47-.34-1.5-.2-3.42-.08-4.62-.74v-.02Z"/>
      </g>
    </g>
  </g>
</svg>