<?xml version="1.0" encoding="UTF-8"?>
<svg id="Layer_1" data-name="Layer 1" xmlns="http://www.w3.org/2000/svg" viewBox="0 0 311.11 296">
  <defs>
    <style>
      .cls-1 {
        fill: #c1e6ed;
      }

      .cls-2 {
        fill: #c1e6ed;
      }

      .cls-3 {
        fill: #383838;
      }

      .cls-4 {
        fill: #c1e6ed;
      }

      .cls-5 {
        fill: #383838;
      }
    </style>
  </defs>
  <path class="cls-5" d="M134.56,15.94c206.01-21.04,210.31,274.41,15.45,267.94C-18.98,278.27-24.4,32.18,134.56,15.94ZM94.61,140.49c.2,1.46-1,4.29,1.2,4.08l63.37-.06c.47-3.52-4.58-1.9-7.03-2-13.95-.57-28.85,1.06-42.57.08-2.7-.19-4.28-2.01-4.89-2.1l110.12.13c1.51-30.71-11.54-90.91-38.77-108.82-23.44-15.42-46.1,3.14-58.84,23.31s-25.6,62.92-22.6,85.38ZM31.03,140.49c11.22,3.31,38.32-2.46,51.47,0-.67-38.8,12.49-78.86,38.34-107.99-6.27-1.29-17.29,3.62-23.58,6.7-30.3,14.85-57.76,48.29-66.24,81.11-1.12,4.32-4.87,18.75,0,20.19ZM225.81,132.42c.12,3.36-.13,6.75,0,10.11,1.34.1,2.69-.08,4.03-.01,6.9.36,47.91.89,50.57-.9,4.99-3.36-4.69-33.3-7.21-39.43-13.26-32.27-43.64-60.25-77.67-68.65,21.44,29.08,29,63.31,30.28,98.88ZM30.02,160.67c6.49,49.27,36.23,88.86,84.76,102.93,1.14-1.02-10.97-17.89-12.46-20.82-10.16-20.02-16.6-42.95-19.56-65.21-.92-6.92,1.77-18.68-2.28-22.95-2.71-2.85-4.65-2.12-8.07-2.02-1.34.04-2.7-.09-4.04,0H28c-1.62,3.44,1.85,6.74,2.02,8.07ZM130.94,154.62c-12.09.07-24.25-.05-36.34-.01.14,21.96,2.86,44.51,10.58,65.13,25.87,69.02,76.84,66.96,99.86-2.11,2.87-8.61,15.26-60.02,8.65-63.01h-82.75ZM282.32,156.64h-53.49c-4.96,0-1.77,11.62-2.11,14.45-4.73,38.86-13.07,56.31-31.25,89.45-.82,1.5-4.18,3.43-.94,5.12,48.4-15.57,86.05-56.66,87.78-109.01Z"/>
  <path class="cls-1" d="M130.94,154.62c27.55-.17,55.2.13,82.75,0,6.61,2.99-5.78,54.4-8.65,63.01-23.02,69.07-73.99,71.13-99.86,2.11-7.73-20.62-10.44-43.16-10.58-65.13,12.09-.04,24.25.08,36.34.01Z"/>
  <path class="cls-1" d="M104.7,140.49c-3.1-.48-6.86.33-10.09,0-3-22.46,10.38-66.04,22.6-85.38s35.4-38.73,58.84-23.31c27.23,17.91,40.28,78.11,38.77,108.82l-110.12-.13Z"/>
  <path class="cls-4" d="M282.32,156.64c-1.73,52.36-39.38,93.44-87.78,109.01-3.24-1.69.12-3.62.94-5.12,18.18-33.14,26.51-50.59,31.25-89.45.34-2.83-2.85-14.45,2.11-14.45h53.49Z"/>
  <path class="cls-4" d="M229.84,142.51l-4.04-10.09c-1.28-35.57-8.83-69.8-30.28-98.88,34.02,8.39,64.41,36.37,77.67,68.65,2.52,6.13,12.2,36.07,7.21,39.43-2.66,1.79-43.67,1.25-50.57.9Z"/>
  <path class="cls-4" d="M31.03,140.49c-4.88-1.44-1.12-15.86,0-20.19,8.48-32.82,35.94-66.26,66.24-81.11,6.29-3.08,17.31-7.99,23.58-6.7-25.85,29.13-39.01,69.2-38.34,107.99-13.15-2.46-40.25,3.31-51.47,0Z"/>
  <path class="cls-4" d="M72.41,152.6l8.07,2.02c4.05,4.27,1.36,16.03,2.28,22.95,2.96,22.26,9.4,45.19,19.56,65.21,1.49,2.93,13.6,19.8,12.46,20.82-48.54-14.06-78.27-53.66-84.76-102.93-.25-7.05-1.25-5.57,4.95-6.06,10.95-.86,22.94-1.32,33.4-2.01,1.33-.09,2.7.04,4.04,0Z"/>
  <path class="cls-3" d="M213.7,154.62c-27.56.13-55.2-.17-82.75,0h82.75Z"/>
  <path class="cls-3" d="M104.7,140.49c.61.09,2.19,1.91,4.89,2.1,13.71.98,28.62-.65,42.57-.08,2.45.1,7.51-1.52,7.03,2l-63.37.06c-2.2.22-1.01-2.61-1.2-4.08,3.23.33,6.99-.48,10.09,0Z"/>
  <path class="cls-2" d="M68.37,152.6c-10.47.7-22.45,1.15-33.4,2.01-6.2.49-5.19-.99-4.95,6.06-.18-1.33-3.65-4.64-2.02-8.06h40.37Z"/>
  <path class="cls-2" d="M229.84,142.51c-1.34-.07-2.7.11-4.03.01-.13-3.35.12-6.75,0-10.11l4.04,10.09Z"/>
  <path class="cls-2" d="M80.48,154.62l-8.07-2.02c3.42-.11,5.37-.83,8.07,2.02Z"/>
</svg>