<?xml version="1.0" encoding="UTF-8"?>
<svg id="Layer_2" data-name="Layer 2" xmlns="http://www.w3.org/2000/svg" viewBox="0 0 321.18 296.03">
  <defs>
    <style>
      .cls-1 {
        fill: #fbe09a;
      }

      .cls-2 {
        fill: #383838;
      }

      .cls-3 {
        fill: #383838;
      }
    </style>
  </defs>
  <g id="Layer_1-2" data-name="Layer 1">
    <g>
      <path class="cls-2" d="M211.94,4.34c14.86,3.78,33.37,10.96,46.68,17.92,3.58,1.98,6.76,4.26,9.86,6.92,12.54,11,24.66,23.21,34.1,37.07,5.95,8.83,9.87,19.27,12.75,29.23,1.77,5.9,2.57,12.21,3.53,18.22,1.03,6.64,2.26,13.38,2.31,20.22-.16,7.39-1.84,14.18-2.58,21.57-.59,6.36-1.34,12.74-3.38,18.95-15.54,47.73-55.18,83.16-103.47,97.74-16.25,5.79-33.3,8.29-50.53,8.55-13.98,1.05-28.3-.08-41.89-3.51-8.63-2.12-16.99.2-25.16,3.25-24.88,9.9-42.12,19.04-70.02,14.22-16.49-2.41-23.73-13.01-13.26-27.58,5.9-9.73,16.44-15.75,19.9-26.7,2.14-7.65-5.05-13.25-9.64-18.4-3.59-3.95-6.14-7.94-8.43-12.79-3.89-8.32-8.02-17.99-9.63-26.52-3.55-20.99-5.14-51.49,1.57-72.45,2.29-5.8,5.25-11.22,7.35-17.15,2.5-7.06,4.94-14.44,8.55-20.73C41.74,40.14,75.68,11.9,113.81,3.72c10.21-2.03,20.09-2.58,30.54-3.17,22.06-1.01,46.07-1.1,67.43,3.75l.16.04ZM210.86,16.54c-15.16-4.65-30.9-5.32-46.91-5.7-20.12.09-40.42.93-59.31,7.98C42,38.6,1.99,108.2,12.39,172.72c3.56,15.71,9.72,31.45,21.05,43.21,7.35,7.04,13.51,13.52,10.58,24.33-3.39,12.74-13.03,23.36-21.68,32.97-2.76,3.17-5.7,8.46-.52,10.8,5.15,2.23,11.73,1.82,17.36,1.51,15.87-1.1,30.51-7.28,45-13.25,17.09-7.04,22.98-8.1,41.14-4.43,21.12,2.91,42.24,3.5,63.37-.02,5.47-.89,10.55-2.98,15.37-5.02,4.85-2.11,10.21-3.52,15.32-5.04,8.09-2.45,14.86-6.24,22.04-10.8,23.07-15.02,45.28-36.16,56.38-61.09,32.57-76.78-8.56-150.65-86.75-169.3l-.18-.05Z"/>
      <path class="cls-1" d="M210.53,17.3c82.19,15.36,123.04,103.39,83.13,176.99-11.73,20.69-31.87,39.6-52.21,52.65-6.57,4.16-12.78,7.71-20,10.13-4.55,1.53-9.3,2.71-13.87,4.13-15.46,5.14-31.49,7.41-47.84,7.78-10.94.19-20.87-.15-31.93-2.41-18.46-4-20.9-4.98-38.36,3.35-16.64,7.66-34.1,13.95-52.57,14.07-5.09.04-10.86.39-15.43-1.42-4.63-2.09-1.36-6.79.97-9.55,10.84-12.16,31.68-34.37,17.33-50.52-2.43-2.87-5.31-5.39-7.84-8.19-7.65-8.46-12.67-18.65-15.98-29.49C-3.29,115.57,39.82,35.9,109.63,17.46c19.7-5.26,39.81-5.36,60.54-4.7,14.63.72,26.83,1.77,40.16,4.51l.19.04ZM116.66,85.38c-8.87,2.34-8.16,13-8.23,21.01.06,4.48.11,8.78.96,12.16,1.43,7.95,11.28,10.43,15.97,3.93,2.78-3.76,2.74-9.97,2.66-16.83-.1-9.54-.33-21.46-11.19-20.3l-.17.03ZM183.86,125.17c3.48,1.9,8.04.74,10.31-2.48,3.03-3.94,2.99-10.55,3-17.59-.05-6.39-.1-12.28-2.47-16.05-3.92-6.5-12.67-5.4-15.43,1.59-2.69,6.74-1.8,16.55-1.25,23.75.67,4.94,2.09,8.7,5.69,10.71l.14.08ZM107.14,160.92c-3.17-1.33-5.78,1.75-6.39,5.86-.88,9.44,7.05,17.14,13.09,24.13,5.11,5.51,10.58,10.42,17.13,13.69,22.4,11.8,50.89,2.27,65.16-18.42,3.6-4.62,7.45-9.04,9.16-14.48,2.1-6.4-2.72-12.53-8.81-7.31-4.49,4.01-7.32,10.46-11.64,15-2.4,2.73-5.14,5.24-8.04,7.44-20.53,16.19-44.97,10.34-58.31-10.94-3.41-4.67-6.43-12.54-11.23-14.92l-.12-.05Z"/>
      <path class="cls-3" d="M114.28,15.47c1.44-.86,6.06-1.6,8.39-2.03,27.42-4.17,57.44-4.51,84.63,1.63,3.63,1.05,3.74,1.76-.02,1.48-25.94-3.95-59.17-6-84.96-1.91-2.16.27-6.58,1.09-8.04.85h0Z"/>
      <path class="cls-3" d="M201.64,265.09c.13.07.1.18-.09.31-2.28,1.1-4.24,1.37-6.35,1.87-22.59,4.34-45.18,3.92-68,1.08-9.17-1.08-19.12-4.23-28.25-2.83-7.04.98-.95-2.05,3.79-2.66,4.27-.6,8.97.41,13.41,1.38,9.75,2.22,19.09,4.25,29,4.63,13.52.68,27.31.11,40.5-1.93,4.73-.55,11.64-2.33,15.95-1.88l.03.02Z"/>
      <path class="cls-3" d="M59.67,281.72c-8.6,4.34-30.99,5.9-40.51,3.4-1.98-.56-2.04-1.1.14-1.29,11.14-.02,22.76.54,33.79-1.49,1.89-.2,5.14-1.05,6.57-.64v.02Z"/>
      <path class="cls-3" d="M10.98,139.19c.82,11.35.93,23.32,2.7,34.71.26,2.07.6,4.69.71,6.57.06,1.04,0,1.54-.15,1.43-3.77-10.88-3.72-22.81-3.88-34.5.01-2.25.1-5.13.3-7.14.11-.94.19-1.4.32-1.12v.04Z"/>
      <path class="cls-2" d="M107.27,160.97c4.81,2.39,7.82,10.24,11.23,14.92,13.36,21.28,37.78,27.13,58.31,10.93,5.87-4.32,10.69-10.17,14.57-16.22,2.61-4.08,7.67-10.66,12.31-7.22,6.32,6.84-3.16,16.94-7.56,22.8-17.42,25.19-53.36,32.15-76.18,10.78-7.24-7.04-20.6-19.72-19.2-30.18.6-4.11,3.22-7.19,6.39-5.86l.12.05Z"/>
      <path class="cls-2" d="M116.83,85.35c10.86-1.15,11.1,10.76,11.19,20.3.08,6.86.11,13.07-2.66,16.83-4.68,6.49-14.54,4.02-15.97-3.93-.85-3.38-.9-7.68-.96-12.16.07-8-.63-18.68,8.23-21.01l.17-.03Z"/>
      <path class="cls-2" d="M183.72,125.09c-3.6-2-5.02-5.77-5.69-10.71-.56-7.19-1.45-17.01,1.25-23.75,2.76-6.99,11.51-8.1,15.43-1.59,2.37,3.77,2.42,9.66,2.47,16.05,0,7.04.03,13.65-3,17.59-2.28,3.22-6.83,4.39-10.31,2.48l-.14-.08Z"/>
    </g>
  </g>
</svg>