<?xml version="1.0" encoding="UTF-8"?>
<svg id="Layer_2" data-name="Layer 2" xmlns="http://www.w3.org/2000/svg" viewBox="0 0 490.86 378.11">
  <defs>
    <style>
      .cls-1 {
        fill: #f65625;
      }
    </style>
  </defs>
  <g id="_àð_1" data-name="˜àð_1">
    <path class="cls-1" d="M472.47,178.36c-5.17-5.98-11.22-11.15-17.87-15.28,10.8-14.99,16.76-33.8,12.63-52.19-8.03-35.78-44.96-58.48-79.38-62.38-7.68-.87-15.43-.89-23.07-.04-15.64-24.56-41.32-42.59-70.47-47.2-41.27-6.54-83.81,12.43-105.37,48.39-3.92,6.54-7.13,13.5-9.55,20.69-5.69-2.33-11.64-4.03-17.72-5.04-26.39-4.37-52.95,5.62-71.19,24.93-2.06,2.18-4,4.46-5.81,6.84-12.36.76-24.57,3.96-35.76,9.52C23.93,119.02,6.74,143.28,1.59,170.52c-5.12,27.08,2.26,54.73,20.52,75.42,17.82,20.18,44.29,32.47,71.35,31.18,8.04-.39,15.97-1.87,23.59-4.34.81,11.53,3.78,22.93,9.05,33.53,16.6,33.35,52.35,54.62,89.67,51.88,11.01-.8,21.79-3.49,31.81-7.9,13.67,13.07,30.89,22.41,49.61,26.07,34.83,6.8,73.27-6.49,95.92-33.97,6.2-7.52,11.28-16.4,14.12-25.81,26.25-2.75,51.27-15.3,67.11-37.27,21.73-30.13,22.93-72.26-1.87-100.94Z"/>
  </g>
</svg>