<?xml version="1.0" encoding="UTF-8"?>
<svg id="Layer_2" data-name="Layer 2" xmlns="http://www.w3.org/2000/svg" viewBox="0 0 386.6 379.78">
  <defs>
    <style>
      .cls-1 {
        fill: #faaa68;
      }
    </style>
  </defs>
  <g id="_àð_1" data-name="˜àð_1">
    <path class="cls-1" d="M358.28,79.69c-20.44-32.45-51.84-57.88-88.03-70.7C227.13-6.28,180.85-.24,138.11,13.22c-11.35,3.57-22.51,7.65-33.58,11.99-.05.02-.1.04-.15.08-.07,0-.14.04-.21.07C36.03,55.65-5.28,132.69.55,206.12c6.15,77.46,61.42,145.61,136.36,166.43,38.42,10.67,80.2,9.56,117.88-3.56,35.63-12.4,66.73-35.74,89.7-65.55,49.13-63.75,57.28-154.71,13.79-223.75Z"/>
  </g>
</svg>