<?xml version="1.0" encoding="UTF-8"?>
<svg id="Layer_2" data-name="Layer 2" xmlns="http://www.w3.org/2000/svg" viewBox="0 0 426.06 380.59">
  <defs>
    <style>
      .cls-1 {
        fill: #028393;
      }
    </style>
  </defs>
  <g id="_àð_1" data-name="˜àð_1">
    <path class="cls-1" d="M384.24,141.58c-14.64-3.64-30.05-2.07-44.32,2.45-15.69,4.97-29.06,14-43.58,21.42-14.22,7.26-31.84,11.97-46.32,2.69-23.88-17.72-4.31-54.56,4.95-74.92,6.42-14.13,12.86-29.3,12.37-45.13-.43-13.44-6.41-25.73-16.6-34.48-21.04-18.06-50.5-17.01-73.6-3.53-20.72,12.09-47.23,40.15-35.61,66.34,9.07,20.45,35.35,23.27,52.93,32.87,11.01,6.02,19.45,15.69,19.08,28.89-.4,14-9.53,27.2-21.65,33.78-30.9,16.79-66.7-.16-97.86-6.74-26.7-5.65-57.48-3.59-78.15,16.29-16.54,15.9-21.95,44.83-7.53,63.9,16.36,21.61,47.72,17.9,69.27,7.27,27.52-13.56,49.67-39.71,81.64-42.92,13.42-1.36,28,1.42,37.57,11.6,10.95,11.66,11.63,28.77,9.08,43.72-4.99,29.27-24.82,60.44-8.08,89.48,13.09,22.73,41.13,32.04,65.24,21.99,25.68-10.69,38.69-39.24,31.5-65.9-6.49-24.03-43.19-49.87-20.04-75.31,23.71-26.04,61.1-8.96,89.94-5.1,24.81,3.31,55.79-3.95,60.88-32.52,4.88-27.34-15.73-49.85-41.1-56.15Z"/>
  </g>
</svg>