<?xml version="1.0" encoding="UTF-8"?>
<svg id="Layer_2" data-name="Layer 2" xmlns="http://www.w3.org/2000/svg" viewBox="0 0 358.32 397.12">
  <defs>
    <style>
      .cls-1 {
        fill: #f6dcac;
      }
    </style>
  </defs>
  <g id="_àð_1" data-name="˜àð_1">
    <path class="cls-1" d="M354.56,273.55c-6.14-17.97-19.94-32.45-37.27-40.07-8.38-3.69-17.44-5.77-26.59-5.88-9.67-.12-19.28,1.57-28.96,1.28-9.82-.3-20.1-3.42-24.96-12.71-4.46-8.52-3.18-19.28,1.35-27.49,10.59-19.16,34.97-22.18,54.42-24.73,17.54-2.3,36.83-6.6,44.79-24.41,7.5-16.76,2.05-35.9-11-48.19-25.94-24.41-70.65-17.22-89.69,12.24-11.67,18.06-12.21,41.46-25.81,58.41-6.28,7.84-15.54,14.76-25.98,14.82-10.06.06-18.18-6.58-22.42-15.34-10.34-21.33,3.68-43.57,14.52-61.55,5.61-9.31,11.11-18.93,13.76-29.56,2.22-8.91,2.2-18.3.12-27.22-4.21-18.1-16.84-33.1-34.29-39.65-17.02-6.39-36.45-4.11-50.89,7.14-14.73,11.47-22.17,29.64-19.64,48.12,3.08,22.38,17.39,40.67,27.53,60.18,9.52,18.32,15.92,41.75,3.45,60.35-6.25,8.16-9.29,17.69-12.2,27.41-3.07,10.27-5.93,21.73-13.51,29.73-7.09,7.49-19.61,11.72-28.17,4.08-6.6-5.89-8.13-15.92-7.17-24.3,2.18-18.93,17.07-36.65,7.81-55.95-3.06-6.37-8.77-11.68-16.11-12.06-8.59-.44-16.07,5.82-19.94,13.03-5.16,9.6-5.96,21.27-7.72,31.85-2.02,12.19-4.11,24.37-6.05,36.58-2.89,18.27-3.79,41.93,14.65,52.69,19.68,11.49,36.73-9.73,53.2-17.08,8.91-3.98,21.58-4,27.29,5.39,5.74,9.45-3.55,17.89-11.4,21.67-9.31,4.48-20.09,6.09-30.06,8.5-10.3,2.48-20.59,5.21-30.31,9.47-16.79,7.35-31.72,20.79-36.22,39.17-4.35,17.75,4.89,34.37,21.14,42.02,19.17,9.03,41.86,4.06,60.62-3.59,18.06-7.37,34.5-18.64,47.85-32.86,6.91-7.35,12.25-15.62,18.2-23.71,6.07-8.25,17.82-18.3,28.51-11.31,8.84,5.77,6.33,18.76,3.34,27.04-3.37,9.33-8.22,19.57-4.17,29.49,6.29,15.44,26.91,17.86,41.23,19.54,19.06,2.23,41.83,2.26,53.73-15.6,4.64-6.97,5.81-15.54,2.55-23.33-3.43-8.2-10.59-14.33-18.07-18.78-9.47-5.63-20.27-9.3-28.77-16.47-8.03-6.77-14.42-18.01-9.92-28.54,3.77-8.83,13.26-13.64,21.57-17.37,10.24-4.62,21.38-9.7,32.88-9.09,10.13.54,19.77,5.88,22.91,15.96,2.52,8.11,1.06,16.96-.05,25.18-1.96,14.45-3.73,32.83,12.18,40.17,17.09,7.89,34.32-3.72,42.8-18.4,9.72-16.82,11.2-38,4.95-56.29Z"/>
  </g>
</svg>