<?xml version="1.0" encoding="UTF-8"?>
<svg id="Layer_2" data-name="Layer 2" xmlns="http://www.w3.org/2000/svg" viewBox="0 0 383.67 391.19">
  <defs>
    <style>
      .cls-1 {
        fill: #f6dcac;
      }
    </style>
  </defs>
  <g id="_àð_1" data-name="˜àð_1">
    <path class="cls-1" d="M380.64,61.51c3.31-19.83,3.94-40.02,1.75-60-.1-.96-.87-1.72-1.89-1.45-66.54,17.5-128.68,50.56-180.48,95.84-3.34,2.92-6.63,5.89-9.88,8.92-10.11-10.53-20.91-20.4-32.28-29.57-28.52-22.97-60.59-41.45-94.79-54.56C43.29,13.11,22.83,7.4,1.98,3.61c-.96-.17-1.87.41-1.89,1.45-1.64,66.08,20.35,132.01,60.58,184.38,10.03,13.06,21.16,25.2,33.29,36.31-25.91,32.07-45.64,69.11-57.63,108.68-5.46,18.04-9.23,36.54-11.37,55.26-.09.8.76,1.52,1.5,1.5,72.72-1.35,144.68-23.2,206.01-62.27,1.43-.91,2.86-1.83,4.27-2.77,40.74,24.22,85.39,41.67,131.87,51.43,1.12.23,2.12-.69,1.84-1.85-13.54-55.52-39.81-107.65-76.3-151.63-2.76-3.34-5.59-6.62-8.47-9.85,50.1-35.64,84.82-92.03,94.96-152.74Z"/>
  </g>
</svg>