<?xml version="1.0" encoding="UTF-8"?>
<svg id="Layer_2" data-name="Layer 2" xmlns="http://www.w3.org/2000/svg" viewBox="0 0 433.37 278.58">
  <defs>
    <style>
      .cls-1 {
        fill: #028393;
      }
    </style>
  </defs>
  <g id="_àð_1" data-name="˜àð_1">
    <path class="cls-1" d="M432.29,147.04c-64.72-13.15-132.1-38.97-169.11-97.15-9.52-14.95-16.33-31.41-19.76-48.81-.25-1.24-2.18-1.49-2.74-.36-13.13,26.3-26.24,52.61-39.36,78.92-17.38-22.02-29.11-47.94-34.31-75.53-.23-1.22-2.21-1.51-2.74-.36-12.16,26.7-31.44,49.37-52.51,69.5-22.27,21.28-46.83,40.01-71.57,58.3-13.12,9.72-26.34,19.3-39.35,29.17-.86.37-1.15,1.71-.46,2.47,0,.01.01.01.02.01.25.34.62.56,1.03.55,24.8,8.58,49.04,18.92,72.3,31.08,24.65,12.88,48.83,27.89,68.98,47.23,10.03,9.62,18.98,20.43,25.28,32.88.64,1.26,2.31.74,2.74-.36,7-17.97,14.01-35.92,21.02-53.88,9.01,19.05,18.02,38.09,27.04,57.14.4.84,1.76.99,2.36.3,43.06-49.08,97.8-87.59,158.56-111.52,17.13-6.75,34.71-12.3,52.58-16.68,1.4-.35,1.47-2.6,0-2.9Z"/>
  </g>
</svg>