<?xml version="1.0" encoding="UTF-8"?>
<svg id="Layer_2" data-name="Layer 2" xmlns="http://www.w3.org/2000/svg" viewBox="0 0 445.78 409.05">
  <defs>
    <style>
      .cls-1 {
        fill: #028393;
      }
    </style>
  </defs>
  <g id="_àð_1" data-name="˜àð_1">
    <path class="cls-1" d="M444.21,146.25c-3.79-23.18-14.97-44.69-32.03-60.87-16.24-15.4-37.14-25.98-59.26-29.53-10.29-1.65-21.9-2.63-31.77,1.44-8.59,3.55-15.15,12.11-13.59,21.76,1.61,10.01,11.37,12.3,19.98,13.07,5.49.49,11.72.7,16.19,4.38,4.77,3.94,6.05,10.84,4.86,16.66-2.56,12.61-15.91,21.09-26.41,26.73-11.76,6.32-25.38,10.13-38.77,7.98-12.07-1.93-22.73-8.3-29.32-18.69-6.7-10.57-7.67-22.77-4.92-34.78,4.49-21.32,8.64-51.04-14.67-63.41-19.09-10.12-36.95,7.78-39.72,26.13-4.05,26.95,17.13,49.97,21.64,75.44,2.15,12.17.57,32.92-14.9,35.58-16.82,2.89-14.59-18.38-14.38-28.73.88-45.06-13.18-95.44-52.26-122.02C117.54,5.61,96.21-1.03,75.16.13c-21.19,1.17-40.72,10.91-54.12,27.41C7.26,44.52.3,66.57.01,88.29c-.36,26.46,8.4,52.22,20.56,75.41,10.82,20.64,24.8,43.83,48.41,51.17,10.15,3.16,21.8,2.99,31.04-2.73,8.21-5.08,14.36-14.05,14.88-23.83.97-18.08-17.54-28.08-29.58-37.89-6.52-5.31-12.98-11.78-14.07-20.53-1.48-12.07,8.73-22.68,19.94-25.24,12.95-2.96,26.29,4.03,34.94,13.29,9.47,10.15,14.62,23.49,19.04,36.43,9.11,26.63,16.5,56.17,9.01,84.12-5.75,21.47-22.32,42.03-44.49,47.67-13.02,3.31-25.39-.63-38.2-2.89-11.18-1.97-22.39-1.47-31.66,5.76-19.38,15.1-17.73,42.32-8.28,62.54,9.11,19.49,25.49,34.94,44.44,44.77,43.09,22.36,93.67,13.29,133.29-12.17,10.19-6.55,19.86-14.1,28.54-22.57,8.29-8.09,15.96-17.84,18.22-29.47,1.86-9.61.18-20.54-6.91-27.74-6.21-6.31-16.66-8.65-24.84-5.07-3.96,1.73-6.63,4.72-8.87,8.31-2.54,4.07-4.9,10.26-10.12,11.43-7.02,1.59-10.93-7.21-11.92-12.66-1.1-6.09-.51-12.45,1.37-18.32,8.28-25.73,40.1-34.11,60.87-17.58,18.11,14.4,24.71,38.38,41.16,54.35,7.46,7.25,16.87,12.95,27.52,13.25,10.3.29,20.1-4.81,26.79-12.48,14.75-16.92,13.27-46.18-1.01-63.03-6.69-7.89-16.04-11.08-26.14-8.82-11.76,2.64-23.11,10.85-35.56,6.89-11.93-3.81-19.61-15.88-20.14-28.05-.59-13.92,6.42-26.91,15.83-36.7,9.27-9.66,20.92-17.32,32.56-23.83,11.43-6.38,24.42-11.38,37.73-9.68,12.57,1.59,23.75,8.85,27.79,21.24,3.63,11.12,2.5,23.24,7.16,34.1,3.7,8.61,11.15,15.96,21.17,15.06,10.22-.9,18.2-9.65,23.12-17.96,11.8-19.96,14.31-46.08,10.62-68.59Z"/>
  </g>
</svg>