<?xml version="1.0" encoding="UTF-8"?>
<svg id="Layer_2" data-name="Layer 2" xmlns="http://www.w3.org/2000/svg" viewBox="0 0 362.55 341.2">
  <defs>
    <style>
      .cls-1 {
        fill: #E22028;
      }
    </style>
  </defs>
  <g id="_àð_1" data-name="˜àð_1">
    <path class="cls-1" d="M360.84,189.31c-5.22-26.1-22.93-47.43-46.55-59.16,9.92-25.37,3.75-54.88-12.8-76.07-16.86-21.57-43.75-33.85-70.73-35.89-7.47-.56-15.01-.33-22.41.86-2.1.34-4.15.92-6.24,1.26-2.14.34-2.77.22-4.41-1.19-2.57-2.19-5.3-4.21-8.14-6.04-11.74-7.56-25.45-11.89-39.36-12.86-29.04-2-58.55,9.68-81.24,27.31-11.96,9.29-22.45,20.9-28.91,34.71-6.94,14.81-8.48,31.3-5.1,47.22C14,124.01,1.43,148.17.11,173.54c-1.37,26.18,10.23,50.97,30.85,67.07,11.3,8.83,24.65,14.76,38.79,17.1,2.15,22.03,12.22,42.76,28.44,57.9,16.46,15.37,38.2,23.39,60.45,25.17,22.94,1.83,46.62-2.48,67.66-11.74,10.23-4.5,19.93-10.33,28.36-17.69,4.22-3.69,8.08-7.79,11.48-12.25,1.17-1.54,2.66-4.98,4.33-5.81,1.95-.96,6.22-.03,8.47-.12,24.88-.94,49.05-12.48,64.86-31.78.03-.03.06-.08.1-.11,15.87-20.14,21.94-46.86,16.93-71.97Z"/>
  </g>
</svg>