<?xml version="1.0" encoding="UTF-8"?>
<svg id="Layer_2" data-name="Layer 2" xmlns="http://www.w3.org/2000/svg" viewBox="0 0 374.58 324.08">
  <defs>
    <style>
      .cls-1 {
        fill: #E282B4;
      }
    </style>
  </defs>
  <g id="_àð_1" data-name="˜àð_1">
    <path class="cls-1" d="M345.69,29c-13.87-14.89-32.79-22.44-53.1-21.8-20.9.66-41.12,8.65-58.63,19.73-21.63,13.67-39.78,32.71-52.68,54.79-12.22-27.51-29.9-52.4-56.37-68.08C107.88,3.54,88.12-1.66,68.3.47,49.21,2.52,30.82,11.07,18.51,26.08-10.5,61.47-.41,111.24,14.92,150.14c14.31,36.27,35.96,69.45,62.66,97.8,27.1,28.77,59.46,52.7,95.03,69.96,4.38,2.12,8.81,4.14,13.27,6.07.2.09.4.12.59.1.18.02.38-.02.58-.1,41.5-18.14,82.34-39.41,116.36-69.71,31.47-28.03,57.09-64.05,66.83-105.53,9.39-39.98,4.56-88.5-24.55-119.73Z"/>
  </g>
</svg>