<?xml version="1.0" encoding="UTF-8"?>
<svg id="Layer_2" data-name="Layer 2" xmlns="http://www.w3.org/2000/svg" viewBox="0 0 354.11 350">
  <defs>
    <style>
      .cls-1 {
        fill: #f6dcac;
      }
    </style>
  </defs>
  <g id="_àð_1" data-name="˜àð_1">
    <path class="cls-1" d="M347.31,303.31c-4.9-11.13-10.81-21.81-17.56-31.91-27.13-40.59-68.28-71.94-114.89-86.66-4.25-1.35-8.56-2.54-12.88-3.6,38.15-16.85,79.82-37.25,96.88-77.8,4.99-11.84,7.7-24.52,9.52-37.19,1.64-11.4,3.8-24,.32-35.27-6.34-20.55-29.8-24.08-48.3-24.93-32.52-1.49-65.08-2.51-97.61-3.76h-.07C137.36.55,111.94-.65,86.52.39c-17.29.7-38.12,2.41-50.48,16.19-14.79,16.48-8.09,40.63-.52,58.78,7.94,19.01,19.32,36.58,33.26,51.73,14.84,16.12,32.53,29.42,52.15,39.15-44.85,16.04-83.07,49.02-105.71,90.94-10.05,18.58-23.43,46.97-8.67,66.58,6.64,8.84,17.51,12.78,27.98,14.87,14.49,2.89,29.57,3.55,44.26,4.79,64.89,5.51,130.07,7.55,195.18,6.14,15.96-.35,31.92-.9,47.86-1.66,10.29-.49,23.6-.82,29.57-10.82,6.25-10.45.27-23.81-4.11-33.77Z"/>
  </g>
</svg>