<?xml version="1.0" encoding="UTF-8"?>
<svg id="Layer_2" data-name="Layer 2" xmlns="http://www.w3.org/2000/svg" viewBox="0 0 331.3 316.13">
  <defs>
    <style>
      .cls-1 {
        fill: #f6dcac;
      }
    </style>
  </defs>
  <g id="_àð_1" data-name="˜àð_1">
    <path class="cls-1" d="M330.41,86.96c-7.05-42.22-49.01-65.59-89.37-62.74-2.96.21-5.97.56-8.98,1.07-15.12-13.5-34.16-22.39-54.53-24.68-28.26-3.2-60.72,6.39-79.98,28.08-2.32,2.61-4.43,5.44-6.25,8.41-16.11-.6-32.37,5.08-44.67,17.22-16.09,15.87-21.23,38.67-15.69,59.18-9.24,5.48-17.24,12.89-23.04,22.72-6.44,10.9-9.55,23.93-7.04,36.47,2.25,11.22,8.89,20.91,17.29,28.48-2.59,4.79-4.3,10.1-4.97,15.64-2.21,17.98,5.94,35.94,18.04,48.89,17.58,18.8,42.96,26.81,67.25,23.31,2.8,4.2,6.22,8.02,10.17,11.23,20.08,16.34,53.53,21.55,76.61,8.65,3.68-2.06,7.05-4.68,9.93-7.71,8.48,3.44,17.81,4.82,27.24,3.53,25.67-3.53,46.44-24.48,48.56-50.45.32-3.98.23-7.96-.28-11.88,10.29-4.85,19.49-12,26.58-21.22,15.91-20.7,21.08-51.91,9.8-76.03,3.22-2.28,6.22-4.92,8.94-7.84,12.68-13.61,17.41-32.12,14.37-50.32Z"/>
  </g>
</svg>