<?xml version="1.0" encoding="UTF-8"?>
<svg id="Layer_2" data-name="Layer 2" xmlns="http://www.w3.org/2000/svg" viewBox="0 0 244.22 370.73">
  <defs>
    <style>
      .cls-1 {
        fill: #f65625;
      }
    </style>
  </defs>
  <g id="_àð_1" data-name="˜àð_1">
    <path class="cls-1" d="M232.93,74.31C210.86,21.81,150.94-13.6,94.74,5.02,39.75,23.25-7.5,84.1.99,143.54c3.82,26.73,18.82,53.07,43.2,65.97,21.87,11.59,50.29,11.49,71.52-1.6,2.75-1.69,5.34-3.61,7.76-5.72-27.54,55.63-56.6,110.48-84,166.19-.64.75-.14,1.94.73,2.25.02,0,.05.02.08.02.03.03.06.03.09.03.44.14.9.08,1.25-.28,58.7-31.72,118.37-66.3,159.55-120.22,37.69-49.34,56.74-116.43,31.76-175.86Z"/>
  </g>
</svg>