<?xml version="1.0" encoding="UTF-8"?>
<svg id="Layer_2" data-name="Layer 2" xmlns="http://www.w3.org/2000/svg" viewBox="0 0 502.91 378.13">
  <defs>
    <style>
      .cls-1 {
        fill: #faaa68;
      }
    </style>
  </defs>
  <g id="_àð_1" data-name="˜àð_1">
    <path class="cls-1" d="M502.25,216.43c-29.65-17.18-59.32-34.36-88.97-51.53,13.8-38.89,27.62-77.8,41.43-116.69.38-1.05-.75-1.91-1.69-1.7-33.53,7.59-64.86,22.85-91.57,44.47C328.67,60.77,295.9,30.59,263.14.39c-.71-.65-1.64-.45-2.17.28-17.67,24.21-28.08,53-30.13,82.84-31.97-31.79-68.98-58.23-109.41-78.2-1.01-.51-2.42.33-2.02,1.55,4.82,15,9.64,29.99,14.46,44.98-21.27,10.61-39.85,26.22-58.59,40.68C50.4,111.71,25.52,130.89.64,150.07c-.86.66-.95,2.22.33,2.52,46.58,11.04,93.16,22.08,139.74,33.12-19.5,57.16-32.14,116.52-37.69,176.67-.12,1.31,1.54,1.67,2.36.98,36.14-30.4,72.3-60.8,108.45-91.2,20.64,35.09,41.27,70.19,61.91,105.29.49.82,1.95.98,2.38,0,14.26-31.83,28.52-63.67,42.78-95.5,40.16,13.01,80.31,26.03,120.47,39.04,1.21.4,2.1-1.01,1.56-2.02-12.66-23.91-25.31-47.82-37.98-71.73,32.32-9.43,64.64-18.86,96.96-28.29,1.13-.33,1.37-1.92.33-2.52Z"/>
  </g>
</svg>