<?xml version="1.0" encoding="UTF-8"?>
<svg id="Layer_2" data-name="Layer 2" xmlns="http://www.w3.org/2000/svg" viewBox="0 0 354.88 312.38">
  <defs>
    <style>
      .cls-1 {
        fill: #f6dcac;
      }
    </style>
  </defs>
  <g id="_àð_1" data-name="˜àð_1">
    <path class="cls-1" d="M306.29,9.14C288.78.77,268.97-1.63,249.83,1.03c-18.54,2.58-38.11,9.52-51.94,22.55-5.99,5.65-11.04,12.76-12.83,20.92-2.1,9.54,1.27,18.23,4.36,27.13,6.03,17.36,3.81,35.76-6.13,51.27-4.79,7.46-11.18,13.94-18.78,18.55-7.8,4.73-16.46,6.71-25.35,8.21-15.44,2.6-33.92,5.11-40.91,21.39-6.54,15.18,1.53,32.91,17.3,37.92,4.82,1.53,9.97.95,14.78,2.39,4.56,1.35,7.82,4.63,9.58,9,3.28,8.13,1.05,17.72-5.98,23.06-8.29,6.3-20.24,6.16-29.4,1.84-9.41-4.44-16.31-12.87-21.37-21.74-9.66-16.96-14.27-36.83-14.39-56.27-.13-19.49,4.23-39.05,12.93-56.51,4.32-8.66,9.65-17.36,16.38-24.36,7.14-7.41,19.43-14.1,27.76-4.49,8.38,9.68,7.14,27.43,20.5,32.93,7.11,2.93,15.52.34,20.86-4.88,5.89-5.74,8.42-14.1,9.03-22.11,1.29-17.17-6.76-33.72-18.67-45.7-13.24-13.34-30.83-20.48-49.32-22.65-20.38-2.4-42.21.44-61.75,6.55-15.27,4.76-29.78,14.82-28.23,32.7,1.79,20.62,20.32,34.39,23.99,54.36,4.21,22.95-9.29,44.67-20.89,63.26C10.98,192.95.09,210.77,0,231.02c-.07,17.25,7.65,35.84,21.43,46.64,5.95,4.67,13.18,6.8,20.5,8.28,10.16,2.06,20.25,3.56,29.85,7.71.03,0,.07.03.1.03h0c.06.04.13.07.19.1,40.79,15.51,85,21.47,128.45,17.31,21.2-2.03,42.37-6.3,62.51-13.32,18.09-6.3,35.78-15.36,49.11-29.39,23.3-24.53,30.35-67.34-.65-88.93-13.94-9.71-31.2-10.63-45.64-1.5-16.9,10.67-27.29,30.65-46.58,37.71-8.82,3.23-19.52,2.37-26.85-3.91-8.23-7.05-7-17.8-1.49-26.12,5.43-8.2,13.33-14.36,19.8-21.68,6.51-7.35,12.07-15.57,16.46-24.37,9.63-19.26,10.95-41.35,20.44-60.59,8.24-16.73,26-32.91,45.68-23.96,7.98,3.63,14.21,11.09,13.49,20.21-.64,8.13-5.94,15.04-10.66,21.32-7.83,10.41-17.87,23.77-9.23,36.83,9.4,14.19,28.55,13.4,41.3,4.67,14.55-9.94,23.27-27.15,25.84-44.27,5.39-35.82-15.76-69.4-47.75-84.68Z"/>
  </g>
</svg>