<?xml version="1.0" encoding="UTF-8"?>
<svg id="Layer_2" data-name="Layer 2" xmlns="http://www.w3.org/2000/svg" viewBox="0 0 405.71 433.86">
  <defs>
    <style>
      .cls-1 {
        fill: #faaa68;
      }
    </style>
  </defs>
  <g id="_àð_1" data-name="˜àð_1">
    <path class="cls-1" d="M137.2,130.04c1.57-25.3,3.14-50.59,4.7-75.89.64-10.41,1.41-21.22,6.53-30.3,5.12-9.08,15.98-15.83,25.95-12.77,10.35,3.18,15.43,15.48,14.58,26.27-.85,10.8-6.05,20.68-10.05,30.74-10.54,26.55-12.59,57.76.67,83.06,13.26,25.3,44.16,42.05,71.46,33.64,11.5-3.54,22-11.66,26.3-22.9,4.3-11.24,1.17-25.48-8.71-32.34-9.58-6.65-22.6-5.35-33.29-10.02-15.53-6.79-23.16-25.13-23.14-42.08.04-33.91,26.31-65,58.94-74.22,32.63-9.22,69.25,1.93,94.03,25.08,24.78,23.15,38.2,56.94,40.22,90.79,2.02,33.85-6.67,67.73-20.9,98.51-6.45,13.95-14.58,27.96-27.66,36.04s-32.25,8.08-42.1-3.72c-8.11-9.72-7.63-24.3-2.84-36.01,4.79-11.72,13.16-21.53,20.21-32.05,12.54-18.73,21.02-40.14,24.72-62.37,2.02-12.12,2.52-25.04-2.53-36.24-5.05-11.2-16.97-20.05-29.12-18.16-15.23,2.37-23.7,19.61-24.25,35-.55,15.4,4.16,30.65,3.38,46.04-1.37,27.26-19.3,50.35-33.19,73.85-13.89,23.5-24.08,53.82-10.05,77.24,15.39,25.68,53.11,31.12,67.93,57.13,13.41,23.53.58,55.89-22.74,69.66-23.32,13.77-53.25,11.82-78.42,1.81-12.04-4.79-23.71-11.56-31.6-21.84-7.9-10.28-11.41-24.58-6.46-36.56,4.95-11.98,19.6-19.88,31.65-15.11,11.4,4.51,21.1,18.78,32.38,13.96,5.69-2.43,8.44-9.38,7.62-15.52-.81-6.14-4.45-11.53-8.53-16.19-16.97-19.38-43.75-29.69-69.34-26.7s-49.27,19.2-61.32,41.97c-8.5,16.06-11.96,35.61-25.64,47.57-15.58,13.62-41.25,11.91-56.87-1.67-15.62-13.57-21.25-36.53-16.67-56.71,5.28-23.25,21.95-41.88,35.4-61.56,13.45-19.68,24.34-44.44,16.23-66.86-3.72-10.28-11.92-19.4-22.54-21.98-10.63-2.58-23.26,2.89-26.79,13.24-2.2,6.46-.79,13.54-1.2,20.35-.41,6.82-3.88,14.58-10.62,15.67-6.75,1.09-12.73-5.64-13.46-12.45-.73-6.8,2.22-13.4,5.1-19.61,7.35-15.84,14.71-31.68,22.06-47.52,3.54-7.63,7.18-15.4,12.98-21.49,5.8-6.09,14.25-10.3,22.54-8.89,10.4,1.78,17.66,11.89,19.84,22.21,2.18,10.32.45,21-.55,31.5-1.74,18.32-1.15,37.2,5.11,54.51,6.25,17.3,18.74,32.93,35.74,39.97s38.51,4.04,50.94-9.52c12.43-13.56,12.59-37.52-1.46-49.39-8-6.76-18.83-8.97-27.93-14.15-23.35-13.3-9.17-48.15-7.29-73.04"/>
  </g>
</svg>