<?xml version="1.0" encoding="UTF-8"?>
<svg id="Layer_2" data-name="Layer 2" xmlns="http://www.w3.org/2000/svg" viewBox="0 0 392.05 345.84">
  <defs>
    <style>
      .cls-1 {
        fill: #f65625;
      }
    </style>
  </defs>
  <g id="_àð_1" data-name="˜àð_1">
    <path class="cls-1" d="M387.52,129.31c-.02-.75-.62-1.39-1.4-1.4-27.38-.19-54.78-.36-82.16-.55,4.23-39.78,12.75-79.08,25.45-117.11.3-.89-.49-1.73-1.35-1.77C257.52,5.65,186.97,2.83,116.43,0c-.73-.03-1.44.66-1.4,1.4,1.51,27.75,3.01,55.5,4.52,83.25-39.39-1.04-78.77-2.09-118.15-3.13-.7-.02-1.48.66-1.4,1.4,7.16,66.28,14.32,132.55,21.47,198.83.08.76.57,1.37,1.4,1.4,47.31,1.21,94.61,2.43,141.92,3.65-.33,17.69-2.68,35.36-7.03,52.63-.24.96.45,1.66,1.34,1.77,60.15,7.44,121.27,5.93,180.96-4.53,17.14-3,34.13-6.76,50.96-11.2.58-.16,1.03-.75,1.03-1.35l-4.53-194.81Z"/>
  </g>
</svg>