<?xml version="1.0" encoding="UTF-8"?>
<svg id="Layer_2" data-name="Layer 2" xmlns="http://www.w3.org/2000/svg" viewBox="0 0 440.44 284.26">
  <defs>
    <style>
      .cls-1 {
        fill: #f65625;
      }
    </style>
  </defs>
  <g id="_àð_1" data-name="˜àð_1">
    <path class="cls-1" d="M440.07,260.22c-64.32-74.06-133.99-143.44-208.39-207.38-20.83-17.9-42.03-35.37-63.56-52.41-.08-.06-.17-.12-.27-.17,0,0,0,0,0,0-.49-.34-1.16-.39-1.68.17C101.63,70.93,52.13,155.01,10.02,240.39c-4.26,8.62-11.68,19.44-9.68,29.53,1.57,7.88,8.61,11.92,15.97,13.35,10.63,2.06,22,.36,32.68-.2,13.35-.71,26.72-1.41,40.07-2.1,54.64-2.87,109.26-5.74,163.9-8.61,62.06-3.26,124.1-6.52,186.15-9.78,1.23-.06,1.76-1.44.97-2.35Z"/>
  </g>
</svg>