<?xml version="1.0" encoding="UTF-8"?>
<svg id="Layer_2" data-name="Layer 2" xmlns="http://www.w3.org/2000/svg" viewBox="0 0 431.77 310.93">
  <defs>
    <style>
      .cls-1 {
        fill: #f65625;
      }
    </style>
  </defs>
  <g id="_àð_1" data-name="˜àð_1">
    <path class="cls-1" d="M427.74,195.47c-6.93-20.32-21.71-37.01-38.4-50.06-33.89-26.47-77.87-39-120.59-34-12.93,1.51-25.68,4.52-37.91,8.96,8.04-30.32,9.84-61.79-7.97-89.6-11.21-17.53-28.68-28-49.33-30.21-12.48-1.33-25.09-.07-37.49,1.49-11.32,1.42-22.79,2.77-33.74,6.11-10.13,3.09-19.62,8.1-26.87,15.94-7.43,8.06-12.29,18.07-16.52,28.08-10.29,24.32-19.33,49.22-27.63,74.28-8.56,25.83-16.15,51.98-22.77,78.38-5.39,21.52-12.5,45.68-5.79,67.72,6.25,20.57,25.19,32.57,45.48,36.45,13.18,2.52,26.67,2.08,40,1.38,14.19-.75,28.38-1.58,42.57-2.36,6.82-.38,13.64-.76,20.45-1.14h.06c51.32-2.2,102.71-3.53,153.89-8.11,40.68-3.64,90.79-7.08,116.08-44.29,11.83-17.4,13.19-39.39,6.48-59.02Z"/>
  </g>
</svg>