<svg xmlns="http://www.w3.org/2000/svg" version="1.1" xmlns:xlink="http://www.w3.org/1999/xlink" xmlns:svgjs="http://svgjs.dev/svgjs" width="51.42" height="51.58"><svg id="SvgjsSvg1094" data-name="Layer 1" xmlns="http://www.w3.org/2000/svg" viewBox="0 0 51.42 51.58">
  <defs>
    <style>
      .cls-1 {
        fill: #383838;
      }

      .cls-2 {
        fill: #fbe09a;
      }
    </style>
  </defs>
  <path class="cls-2" d="M21.21,51.45c-5.93.19-12.07.17-18,0C.35,35.05,13.5,21.98,26.19,13.95l-7.98-10.5h26.5c.52,0,4.5,3.09,4.5,3.5v26l-2.03,1.07-8.47-7.23c-10.17,4.4-16.84,13.48-17.49,24.66Z"></path>
  <path class="cls-1" d="M3.21,51.45c-1-.03-2.01.04-3,0C-1.62,34.82,8.84,21.29,22.19,12.95c-3.33-3.5-7.85-5.9-5.54-11.57.71-1.02,1.95-.85,3.01-.98,4.36-.53,21.95-.61,25.84.26,1.4.31,4.08,2.05,4.78,3.22,1.28,2.16,1.54,30.13.5,31.62-3.73,5.34-10.5-4.75-11.22-4.97-5.17-1.57-17.2,15.29-15.36,20.91-.99.08-1.99-.03-2.99,0,.65-11.19,7.32-20.26,17.49-24.66l8.47,7.23,2.03-1.07V6.95c0-.41-3.98-3.5-4.5-3.5h-26.5l7.98,10.5C13.5,21.98.35,35.05,3.21,51.45Z"></path>
</svg><style>@media (prefers-color-scheme: light) { :root { filter: none; } }
@media (prefers-color-scheme: dark) { :root { filter: none; } }
</style></svg>